/* XPM */
static const char *collectible1[] = {
/* columns rows colors chars-per-pixel */
"64 64 234 2 ",
"   c #15101E",
".  c #1C152C",
"X  c #1B1425",
"o  c #1C132F",
"O  c #261B2D",
"+  c #231B34",
"@  c #251A39",
"#  c #2A1D3B",
"$  c #241735",
"%  c #301E3E",
"&  c #2B212C",
"*  c #2B2234",
"=  c #342539",
"-  c #382E30",
";  c #423638",
":  c #543632",
">  c #725433",
",  c #5F4731",
"<  c #2B1C46",
"1  c #321E47",
"2  c #301E50",
"3  c #2C2242",
"4  c #332344",
"5  c #33244B",
"6  c #3C254C",
"7  c #3C2A4C",
"8  c #372849",
"9  c #3B2553",
"0  c #3C2A53",
"q  c #392758",
"w  c #3F3150",
"e  c #3D2B64",
"r  c #3E2464",
"t  c #47384B",
"y  c #432C54",
"u  c #442B5A",
"i  c #452A5C",
"p  c #4B3B55",
"a  c #4C335E",
"s  c #4E3B59",
"d  c #493654",
"f  c #533D5C",
"g  c #593A5F",
"h  c #48304A",
"j  c #442D63",
"k  c #452D6A",
"l  c #4A2D66",
"z  c #532F6B",
"x  c #4D3362",
"c  c #473267",
"v  c #563C62",
"b  c #5B3D64",
"n  c #52346A",
"m  c #5D3C6A",
"M  c #553669",
"N  c #492D75",
"B  c #4C3278",
"V  c #5B3B72",
"C  c #5B3C79",
"Z  c #543777",
"A  c #623E6C",
"S  c #603F67",
"D  c #653D7B",
"F  c #6B3C7C",
"G  c #663E75",
"H  c #723F7F",
"J  c #59444C",
"K  c #55425D",
"L  c #57465E",
"P  c #4B4055",
"I  c #674D56",
"U  c #71564C",
"Y  c #5B4264",
"T  c #5E4369",
"R  c #564163",
"E  c #62446B",
"W  c #65456A",
"Q  c #66526A",
"!  c #664472",
"~  c #6A4575",
"^  c #6C447A",
"/  c #6A4776",
"(  c #71447C",
")  c #724A7C",
"_  c #6C5D73",
"`  c #7B5270",
"'  c #766B7C",
"]  c #796B7D",
"[  c #876829",
"{  c #956C33",
"}  c #A17932",
"|  c #805831",
" . c #C07F2E",
".. c #835853",
"X. c #826549",
"o. c #9A7349",
"O. c #936B53",
"+. c #A67A46",
"@. c #A77D53",
"#. c #86546A",
"$. c #BC8C38",
"%. c #B08A16",
"&. c #C79937",
"*. c #C7932B",
"=. c #D8AC2D",
"-. c #D6A931",
";. c #E6B939",
":. c #E1BA2D",
">. c #EACE35",
",. c #B38A42",
"<. c #B78E50",
"1. c #B78F70",
"2. c #C39E68",
"3. c #D7AC62",
"4. c #E4B464",
"5. c #D3AC4F",
"6. c #E8C44A",
"7. c #EBC357",
"8. c #EDD14F",
"9. c #EBD36D",
"0. c #F4E97A",
"q. c #F2E26B",
"w. c #D9C961",
"e. c #5B358C",
"r. c #5C3A8C",
"t. c #573985",
"y. c #5C3A92",
"u. c #6B3C88",
"i. c #743E85",
"p. c #653B9C",
"a. c #643B94",
"s. c #6F3EA4",
"d. c #6A448B",
"f. c #664487",
"g. c #744682",
"h. c #7A4585",
"j. c #754B82",
"k. c #7C4B85",
"l. c #7B458A",
"z. c #7E4A8B",
"x. c #74458A",
"c. c #7D5088",
"v. c #694495",
"b. c #784797",
"n. c #75529B",
"m. c #7F7586",
"M. c #7E6298",
"N. c #7847A6",
"B. c #7A57A7",
"V. c #7249AE",
"C. c #82498C",
"Z. c #82528E",
"A. c #834C92",
"S. c #8B4D9C",
"D. c #874C98",
"F. c #924E9E",
"G. c #8B529C",
"H. c #875296",
"J. c #92529E",
"K. c #98579F",
"L. c #827787",
"P. c #9D789F",
"I. c #874CA2",
"U. c #964DA8",
"Y. c #8955A8",
"T. c #9354A3",
"R. c #9459A5",
"E. c #9B54AC",
"W. c #9D5AAC",
"Q. c #9656A8",
"!. c #8859B9",
"~. c #9C55B0",
"^. c #9B5DB2",
"/. c #9752B3",
"(. c #8A4CB5",
"). c #A055AE",
"_. c #A05AAE",
"`. c #A355B6",
"'. c #A25BB4",
"]. c #AC5BBA",
"[. c #A758B9",
"{. c #8662A8",
"}. c #8D63BA",
"|. c #9266BC",
" X c #946FB6",
".X c #A561BA",
"XX c #A17598",
"oX c #895AC3",
"OX c #955BC4",
"+X c #9858C7",
"@X c #8C4DC8",
"#X c #AC5BC6",
"$X c #B55DC7",
"%X c #9665C9",
"&X c #9C73C8",
"*X c #9B67D3",
"=X c #8E60C3",
"-X c #A968C6",
";X c #B367C6",
":X c #A26BD4",
">X c #B964D5",
",X c #A675D8",
"<X c #B177CF",
"1X c #AA78E6",
"2X c #B37BEB",
"3X c #B37AE6",
"4X c #B276F0",
"5X c #C26FDA",
"6X c #CB7AE5",
"7X c #C364E0",
"8X c #8B8391",
"9X c #98919C",
"0X c #988E9C",
"qX c #A29CA6",
"wX c #ADA9B1",
"eX c #AEA7B1",
"rX c #B9B4BC",
"tX c #CFA3A1",
"yX c #EBD186",
"uX c #EFDB99",
"iX c #B284D2",
"pX c #B481EB",
"aX c #B986E9",
"sX c #BB88F8",
"dX c #AE82E8",
"fX c #C289F8",
"gX c #C893FA",
"hX c #C4C1C7",
"jX c #CFCCD1",
"kX c #D0CDD2",
"lX c #DBDADD",
"zX c white",
"xX c #F3F2F3",
"cX c #E7E6E8",
/* pixels */
"zXzXzXzXzXzXzXzXzXzXzXzXzXzXzXzXzXzXzXzXzXzXzXzXzXzXzXzXzXzXzXzXzXzXzXzXzXzXzXzXzXzXzXzXzXzXzXzXzXzXzXzXzXzXxXt d p p kXzXzXzXzX",
"zXzXzXzXzXzXzXzXzXzXzXzXzXzXzXzXzXzXzXzXzXzXzXzXzXzXzXzXzXzXzXzXzXzXzXzXzXzXzXzXzXzXzXzXzXzXqXs f f v v b b m G g.x.g./ ] zXzXzX",
"zXzXzXzXzXzXzXzXzXzXzXzXzXzXzXzXzXzXzXzXzXzXzXzXzXzXzXzXzXzXzXzXzXzXzXzXzXzXzXzXzXzXzXzXxXL m l.A.H.G.G.G.G.J.J.l.z.z.l.Y lXzXzX",
"zXzXzXzXzXzXzXzXzXzXzXzXzXzXzXzXzXzXzXzXzXzXzXzXzXzXzXzXzXzXzXzXzXzXzXzXzXzXzXzXzXzXzXrXv h.U.T.F.J.T.J.J.J.S.g.- ; - = k.K zXzX",
"zXzXzXzXzXzXzXzXzXzXzXzXzXzXzXzXzXzXzXzXzXzXzXzXzXzXzXzXzXzXzXzXzXzXzXzXzXzXzXzXzXzX' Y z.`.`.  X X O O O & & - w.0.5.h K.Y zXzX",
"zXzXzXzXzXzXzXzXzXzXzXzXzXzXzXzXzXzXzXzXzXzXzXzXzXzXzXzXzXzXzXzXzXzXzXzXzXzXzXzXzX_ E H.].l.  @ < a.@X/.XXw.9.0.0.-.[ = K.Y xXzX",
"zXzXzXzXzXzXzXzXzXzXzXzXzXzXzXzXzXzXzXzXzXzXzXzXzXzXzXzXzXzXzXzXzXzXzXzXzXzXzXzXm.E D.].a ! v.%X*X1X@XiXuX0.0.uXq.*.[ = K.T lXzX",
"zXzXzXzXzXzXzXzXzXzXzXzXzXzXzXzXzXzXzXzXzXzXzXzXzXzXzXzXzXzXzXzXzXzXzXzXzXzXzX' T A.].h.1 n.3X1XpXdX4XiXtX9.q.q.6.*.[ = T.T lXzX",
"zXzXzXzXzXzXzXzXzXzXzXzXzXzXzXzXzXzXzXzXzXzXzXzXzXzXzXzXzXzXzXzXzXzXzXzXzXzX_ ~ J.[.D.. $ < < 5 < N e.e.` -.*.$.6.*.[ = Q.E kXzX",
"zXzXzXzXzXzXzXzXzXzXzXzXzXzXzXzXzXzXzXzXzXzXzXzXzXzXzXzXzXzXzXzXzXzXzXzXzXp ! G.[.S.X j e.e.e.a.y.B N Z ` *.} O.4.$.[ = W.E kXzX",
"zXzXzXzXzXzXzXzXzXzXzXzXzXzXzXzXzXzXzXzXzXzXzXzXzXzXzXzXzXzXzXzXzXzXzXzXL ! G.[.i.$ 2 t.p.p.p.a.B j W +.,.} ..#.tX@.U 4 W.E kXzX",
"zXzXzXzXzXzXzXzXzXzXzXzXzXzXzXzXzXzXzXzXzXzXzXzXzXzXzXzXzXzXzXzXzXzXzX8X! D.].i.5 < a.e.e.a.p.B 7 t X.:.&.U 0 C ,Xd.n 4 W.E lXzX",
"zXzXzXzXzXzXzXzXzXzXzXzXzXzXzXzXzXzXzXzXzXzXzXzXzXzXzXzXzXzXzXzXzXzXzXp C.[.i.. N e.r q 5 9 q 9 X.;.;.-.O.a k B ,Xd.n 8 W.E kXzX",
"zXzXzXzXzXzXzXzXzXzXzXzXzXzXzXzXzXzXzXzXzXzXzXzXzXzXzXzXzXzXzXzXzXzXzXs C.x + o < < q N.+Xd.2 6 ,.;.;.o.I 0 j B.1Xd.n 8 W.E kXzX",
"zXzXzXzXzXzXzXzXzXzXzXzXzXzXzXzXzXzXzXzXzXzXzXzXzXzXzXzXzXzXzXzXzXzXzX' ^ ( l.D.S.S.I.>X6Xb.< #.&.=.,.J u 0 B B.2Xv.z 4 W.E lXzX",
"zXzXzXzXzXzXzXzXzXzXzXzXzXzXzXzXzXzXzXzXzXzXzXzXzXzXzXzXzXzXzXzXzXzXzXqXb ( C.T.E.E.[.>XZ.m d. X@.} J w c t.t.v.*Xv.l 4 E.E cXzX",
"zXzXzXzXzXzXzXzXzXzXzXzXzXzXzXzXzXzXzXzXzXzXzXzXzXzXzXzXzXzXzXzXzXzXzXjXd f W c.G.Q..X;X* V ,X1XV a 0 5 j y.r.c =Xd.i 4 E.Y xXzX",
"zXzXzXzXzXzXzXzXzXzXzXzXzXzXzXzXzXzXzXzXzXzXzXzXzXzXzXzXzXzXzXzXzXzX' p t p Y ) G.[.E.4 a aX1XN.j 5 q e N r.r.j !.5 . 6 U.Y zXzX",
"zXzXzXzXzXzXzXzXzXzXzXzXzXzXzXzXzXzXzXzXzXzXzXzXzXzXzXzXzXzXzXzXzXm.( ~ t f ! Z.`.T.x V aXpX(.N.u j e t.t.t.r.4 5 + F A.^ ] zXzX",
"zXzXzXzXzXzXzXzXzXzXzXzXzXzXzXzXzXzXzXzXzXzXzXzXzXzXzXzXzXzXzXzXzXzXv v s Y k.[.S.z C ,XaX%Xv.@ g.6X5 k B t.B 1 6 T.E.) f cXzXzX",
"zXzXzXzXzXzXzXzXzXzXzXzXzXzXzXzXzXzXzXzXzXzXzXzXzXzXxXzXzXzXzXzXzXzXzXL.K ) W.Q.z C }.pX%Xd.1 g.W.6X5 q B e.@ 1 ( W.j.Y eXzXzXzX",
"zXzXzXzXzXzXzXzXzXzXzXzXzXzXzXzXzXzXzXzXzXzXzXzXzX8Xf p qXzXzXzXzXzXrXf j._.~.u n %X2X+Xt.9 a '.'.6X5 q k @ # G E.k.v ' zXzXzXzX",
"zXzXzXzXzXzXzXzXzXzXzXzXzXzXzXzXzXzXzXzXzXzXzXzXjXf f jXzXzXzXzXzXlXf ^ E.S.u j 3X2X*Xu.9 x ;XT.J.5Xx i 9 @ x.Q.j.Y 9XzXzXzXzXzX",
"zXzXzXzXzXzXzXzXzXzXzXzXzXzXzXzXzXzXzXzXzXzXzXzXd d xXzXzXzXzXzXcXf ( ).S.a f.pX2XOXb.1 x [.G.z.k.;XD.x # l.W.j.Y 9XzXzXzXzXzXzX",
"zXzXzXzXzXzXzXzXzXzXzXzXzXzXzXzXzXzXzXzXzXzXzXzXp lXzXzXzXzXzXkXf g.E.~.6 D :XpXOXN.q y ~.A.) ! E J.* 7 A.W.) K rXzXzXzXzXzXzXzX",
"zXzXzXzXzXzXzXzXzXzXzXzXzXzXzXzXzXzXzXzXzXzXzXzXK xXzXzXzXzXcXK j.W.E.6 a |.2X*XN.5 y [.H.! K f f ( 7 z.T.) Y eXzXzXzXzXzXzXzXzX",
"zXzXzXzXzXzXzXzXzXzXzXzXzXzXzXzXzXzXzXzXzXzXzXzXd eXzXzXzXxXK j.W.`.y 0 :X2X+XN.5 n .XH.! f t kX9XE A.z.~ K rXzXzXzXzXzXzXzXzXzX",
"zXzXzXzXzXzXzXzXzXzXzXzXzXzXzXzXzXzXzXzXzXzXzXzX_ f kXzXcXf k.W.].7 n ,X3X*Xb.5 V Q.H.! f d jXzXzXeXs Q qXzXzXzXzXzXzXzXzXzXzXzX",
"zXzXzXzXzXzXzXzXzXzXzXzXzXzXzXzXzXzXzXzXzXzXzXzXzXb m Y E ) W.].y f.&X2X:Xd.9 x Q.T.~ f d s E lXzXzXzXzXzXzXzXzXzXzXzXzXzXzXzXzX",
"zXzXzXzXzXzXzXzXzXzXzXzXzXzXzXzXzXqXb hXzXzXzXzXzXL G k.G._.'.x M &XaX:Xb.i 8 [.A.! f hXxX_ b zXzXzXzXzXzXzXzXzXzXzXzXzXzXzXzXzX",
"zXzXzXzXzXzXzXzXzXzXzXzXzXzXzXzXzX' A ' zXzXzXzXzXeXv z.E.T.V 0 ,XpX:Xb.0 7 /.D.! f lXzXzXzXxXzXzXzXzXzXzXzXzXzXzXzXzXzXzXzXzXzX",
"zXzXzXzXzXzXzXzXzXzXzXzXzXzXzXzXzXlXL.zXzXzXzXzXcXf ! U.U.F x ,X3X*Xb.9 y Y.D.! v kXzXzXzXzXlXzXzXzXzXzXzXzXzXzXzXzXzXzXzXzXzXzX",
"zXzXzXzXzXzXzXzXzXzXzXzXb m s ' m.t cXzXzXzXzXzXL ^ J.[.M n !.pX%Xb.u x ^.A.m p cXzXzXzXzXzXzXzXxXzXzXzXzXzXzXzXzXzXzXzXzXzXzXzX",
"zXzXzXzXzXzXzXzXzXzXzXzXF ^ K s v v p zXzXzXzXL ! S.[.8 u B.2XOXI.u y .XG.! s xXzXzXzXzXzXzXzXzXA G zXzXzXzXzXzXzXzXzXzXzXzXzXzX",
"zXzXzXzXzXzXzXzXzXzXzXzX' s K ~ A.l.! 8XzXzXP ! G.E.M 5 %X1XOXI.5 m R.H.! f hXzXzXzXzXzXzXzXzXzXf g zXzXzXzXzXzXzXzXzXzXzXzXzXzX",
"zXzXzXzXzXzXzXzXzXzXzXzXqXK / Q.H F l.T eXL / G.E.g.0 :X4XOXx.5 m G.H.E p cXzXzXzXzXzXzXzXzXzXqXqXzXzXzXzXzXzXzXzXzXzXzXzXzXzXzX",
"zXzXzXzXzXzXzXzXzXzXzXzXf j.'.$XO X C.c.R ! G.$XF l Y.1XOXu.6 7 G.G.! s lXzXzXzXm b _ L.] _ Y qXzXzXzXzXzXzXzXzXzXzXzXzXzXzXzXzX",
"zXzXzXzXzXzXzXzXzXzXrXv j.'.E.& b.@ G.R.j.G.].x 0 n.3XOXu.i = ~.A.m s rXzXzXzX0Xm f zXzXzXzXzXzXzXzXzXzXzXzXzXzXzXzXzXzXzXzXzXzX",
"zXzXzXzXzXzXzXzXzXzXf j.T.h.a Y.dX4 R..XE.`.G 3 Y.pX%Xu.u 7 #XA.A s lXzXzXzXcXf 8XzXzXzXzXzXzXzXzXzXzXzXzXzXzXzXzXzXzXzXzXzXzXzX",
"zXzXzXzXzXzXzXzXzXf g.Q.Q.M X :XgX5 R.5X-Xz.5 &X,XOXb.u x Q.D.! s lXzXzXf b m Q zXzXzXzXzXzXzXzXzXzXzXzXzXzXzXzXzXzXzXzXzXzXzXzX",
"zXzXzXzXzXzXzXzX_ ^ Q.#XD X + *XgX5 Y.>XY.5 }.,X%XY.i G W.G.! p xXzXzXzXeX' rXzXzXzXzXzXzXzXzXzXzXzXzXzXzXzXzXzXzXzXzXzXzXzXzXzX",
"zXzXzXzXzXzXzX' A J.[.x 3 |.n OXsX* 0 M 0 B.%X%XY.j D R.R.^ f lXzXzXzXzXzXzXzXzXzXzXzXzXzXzXzXzXzXzXzXzXzXzXzXzXzXzXzXzXzXzXzXzX",
"zXzXzXzXzXzX8XS D./.y u {.gXj !.1X+ X 8 v.%XoXb.x V ^.'.c.E L.zXzXzXzXzXzXzXzXzXzXzXzXzXzXzXzXzXzXzXzXzXzXzXzXzXzXzXzXzXzXzXzXzX",
"zXzXzXzXzXL.b A.~.V X B 3XgXM v.C ; U f.V.!.!.C b ;X-XT.j.T ' zXzXzXzXzXzXzXzXzXzXzXzXzXzXzXzXzXzXzXzXzXzXzXzXzXzXzXzXzXzXzXzXzX",
"zXzXzXzXqXb h.E.I.. j N.*XgXC @ J *.9.P.!.v.Z u 5X<X-X.XR.Z.! ' zXzXzXzXzXzXzXzXzXzXzXzXzXzXzXzXzXzXzXzXzXzXzXzXzXzXzXzXzXzXzXzX",
"zXzXzXrXb C.).i.+ ,X:Xv.*XsXC . > >.8.3.1.t.< 0 ^.^.Q.R.T.G.H.v zXzXzXzXzXzXzXzXzXzXzXzXzXzXzXzXzXzXzXzXzXzXzXzXzXzXzXzXzXzXzXzX",
"zXzXeXf h.).l.y 0 aX&Xy.%XsXx t o.0.>.:.$./ @ 3 4 8 8 8 3 + D.b xXzXzXzXzXzXzXzXzXzXzXzXzXzXzXzXzXzXzXzXzXzXzXzXzXzXzXzXzXzXzXzX",
"zXlXv ( )./.# C :XaX&Xy.y.C h 4.3.yX-.%.} / j 3XpXaXpX3X|.O J.m xXzXzXzXzXzXzXzXzXzXzXzXzXzXzXzXzXzXzXzXzXzXzXzXzXzXzXzXzXzXzXzX",
"xXf z.E.U.+ v.N.(.aX&XB 5 I 2.yXw.6.+.U I M j %X,X1X2XB.0 E.R.Y zXzXzXzXzXzXzXzXzXzXzXzXzXzXzXzXzXzXzXzXzXzXzXzXzXzXzXzXzXzXzXzX",
"p ^ Q.l.u j oXV.s.aX Xp X.<.yX9.6.$...N k e k N t.r.q x A.E.z.f zXzXzXzXzXzXzXzXzXzXzXzXzXzXzXzXzXzXzXzXzXzXzXzXzXzXzXzXzXzXzXzX",
"f J.U.M e V.oXp.p.&XM.I 7.7.9.6.<.U W C t.t.t.Z c 1 y F E.g.f lXzXzXzXzXzXzXzXzXzXzXzXzXzXzXzXzXzXzXzXzXzXzXzXzXzXzXzXzXzXzXzXzX",
"Y T.8 $ p.v.Z q j n t X.7.8.8.,.O.Q &XfXfXfX2X2Xa 1 T.[.h.b rXzXzXzXzXzXzXzXzXzXzXzXzXzXzXzXzXzXzXzXzXzXzXzXzXzXzXzXzXzXzXzXzXzX",
"f D.M 9 q u u y 7 & > 6.8.6.+.O.c c B.}.=X}.!.d.4 /.'.k.Y ' zXzXzXzXzXzXzXzXzXzXzXzXzXzXzXzXzXzXzXzXzXzXzXzXzXzXzXzXzXzXzXzXzXzX",
"8X~ S.Q./.+X#X7X7X& | ;.;.5.I f q q e e c k 5 % [.E.g.Y 9XzXzXzXzXzXzXzXzXzXzXzXzXzXzXzXzXzXzXzXzXzXzXzXzXzXzXzXzXzXzXzXzXzXzXzX",
"zXeXf Y E g.E.$Xg : { =.o.J 8 {.iXiX<X<X-X+ G E.~.g.R 8XzXzXzXzXzXzXzXzXzXzXzXzXzXzXzXzXzXzXzXzXzXzXzXzXzXzXzXzXzXzXzXzXzXzXzXzX",
"zXzXzXlXQ ! T.[.&  .> , t 7 8 &XgXgXgX{.C a T.~.k.Y qXzXzXzXzXzXzXzXzXzXzXzXzXzXzXzXzXzXzXzXzXzXzXzXzXzXzXzXzXzXzXzXzXzXzXzXzXzX",
"zXzXzXzXzXf h.J.& > ; d v b.5 N.!.OXY.a y .XE.g.v eXzXzXzXzXzXzXzXzXzXzXzXzXzXzXzXzXzXzXzXzXzXzXzXzXzXzXzXzXzXzXzXzXzXzXzXzXzXzX",
"zXzXzXzXzXlXE h.* O a $X>XI.5 p.N.N.u x ;XQ.g.T ' zXzXzXzXzXzXzXzXzXzXzXzXzXzXzXzXzXzXzXzXzXzXzXzXzXzXzXzXzXzXzXzXzXzXzXzXzXzXzX",
"zXzXzXzXzXzXf ( z.A.F.E.>XI.3 N.d.l m R.R.^ v 8XzXzXzXzXzXzXzXzXzXzXzXzXzXzXzXzXzXzXzXzXzXzXzXzXzXzXzXzXzXzXzXzXzXzXzXzXzXzXzXzX",
"zXzXzXzXzXzXxX_ f g ! h.$XI.@ u.4 a R.R.^ f hXzXzXzXzXzXzXzXzXzXzXzXzXzXzXzXzXzXzXzXzXzXzXzXzXzXzXzXzXzXzXzXzXzXzXzXzXzXzXzXzXzX",
"zXzXzXzXzXzXzXzXzXhXf / ).b.+ . + [.T.) f hXzXzXzXzXzXzXzXzXzXzXzXzXzXzXzXzXzXzXzXzXzXzXzXzXzXzXzXzXzXzXzXzXzXzXzXzXzXzXzXzXzXzX",
"zXzXzXzXzXzXzXzXzXzXxXK k.D . 6 `.S.! f kXzXzXzXzXzXzXzXzXzXzXzXzXzXzXzXzXzXzXzXzXzXzXzXzXzXzXzXzXzXzXzXzXzXzXzXzXzXzXzXzXzXzXzX",
"zXzXzXzXzXzXzXzXzXzXzX9XW G V F A.A f hXzXzXzXzXzXzXzXzXzXzXzXzXzXzXzXzXzXzXzXzXzXzXzXzXzXzXzXzXzXzXzXzXzXzXzXzXzXzXzXzXzXzXzXzX",
"zXzXzXzXzXzXzXzXzXzXzXzXf ~ j.g.A s lXzXzXzXzXzXzXzXzXzXzXzXzXzXzXzXzXzXzXzXzXzXzXzXzXzXzXzXzXzXzXzXzXzXzXzXzXzXzXzXzXzXzXzXzXzX"
};
