/* XPM */
static const char *exit[] = {
/* columns rows colors chars-per-pixel */
"64 64 170 2 ",
"   c #000000",
".  c #090503",
"X  c #0D0805",
"o  c #0F0F0F",
"O  c #100F0F",
"+  c #100B03",
"@  c #0F100F",
"#  c #10100F",
"$  c #191608",
"%  c #0F0F10",
"&  c #100F10",
"*  c #101010",
"=  c #2F1D15",
"-  c #361F13",
";  c #3C2B09",
":  c #372014",
">  c #392015",
",  c #3F2419",
"<  c #2C2C2C",
"1  c #353535",
"2  c #373738",
"3  c #383738",
"4  c #3B3C3C",
"5  c #4A280E",
"6  c #4C2C14",
"7  c #422719",
"8  c #45291B",
"9  c #4B2C1D",
"0  c #532E14",
"q  c #522F1D",
"w  c #55311E",
"e  c #58331F",
"r  c #57381E",
"t  c #593715",
"y  c #643B13",
"u  c #653E1E",
"i  c #553221",
"p  c #5A3421",
"a  c #5E3926",
"s  c #593C34",
"d  c #613725",
"f  c #623A25",
"g  c #6B3D26",
"h  c #633728",
"j  c #6C3E29",
"k  c #703E2A",
"l  c #4E4413",
"z  c #5E4010",
"x  c #5A4816",
"c  c #574518",
"v  c #574616",
"b  c #6F5814",
"n  c #6D5518",
"m  c #775512",
"M  c #7A5B18",
"N  c #76621C",
"B  c #54462A",
"V  c #6F4129",
"C  c #704027",
"Z  c #74432A",
"A  c #79462C",
"S  c #7C492E",
"D  c #7F4B30",
"F  c #4D4D4D",
"G  c #504F4F",
"H  c #525252",
"J  c #666666",
"K  c #676867",
"L  c #6F6F6F",
"P  c #706F6F",
"I  c #6F706F",
"U  c #70706F",
"Y  c #717171",
"T  c #864D12",
"R  c #825F17",
"E  c #975E12",
"W  c #955513",
"Q  c #816014",
"!  c #9B6214",
"~  c #967B1D",
"^  c #834C2F",
"/  c #854A2D",
"(  c #844D31",
")  c #894F31",
"_  c #8C5233",
"`  c #915635",
"'  c #965937",
"]  c #985A37",
"[  c #965938",
"{  c #9B5C39",
"}  c #A15F3A",
"|  c #9F7B24",
" . c #A3613B",
".. c #A9643D",
"X. c #A8881F",
"o. c #9F873E",
"O. c #BF8E26",
"+. c #BF9024",
"@. c #DB8721",
"#. c #D28E24",
"$. c #F9AD2C",
"%. c #FFB62F",
"&. c #FFC93A",
"*. c #F4C334",
"=. c #FFD331",
"-. c #A09954",
";. c #B6A25F",
":. c #FFCE41",
">. c #909190",
",. c #9C9C9C",
"<. c #A09F9F",
"1. c #A0A09F",
"2. c #A4A3A3",
"3. c #A8A7A7",
"4. c #A8A8A7",
"5. c #ABABAB",
"6. c #B0B0AF",
"7. c #B0AFB0",
"8. c #B3B3B3",
"9. c #B7B8B7",
"0. c #BDBDBD",
"q. c #FFED83",
"w. c #C3C3C3",
"e. c #CCCCCC",
"r. c #CFD0D0",
"t. c #DADADA",
"y. c #DADBDB",
"u. c #D9DAD9",
"i. c #DDDEDE",
"p. c #E1E1E1",
"a. c #E6E6E6",
"s. c #E4E4E3",
"d. c #E9E9E9",
"f. c #E8E9E8",
"g. c #EAEBEA",
"h. c #E9EAE9",
"j. c #ECECEC",
"k. c #EDEDED",
"l. c #EEEEEE",
"z. c #EDEDED",
"x. c #F0F0EF",
"c. c #EFF0F0",
"v. c #F2F2F2",
"b. c #F3F3F3",
"n. c #F0F1F1",
"m. c #F5F5F5",
"M. c #F4F4F4",
"N. c #F6F6F6",
"B. c #F6F7F6",
"V. c #F7F7F7",
"C. c #F5F6F5",
"Z. c #F3F3F3",
"A. c #F7F8F7",
"S. c #F7F8F7",
"D. c #F8F7F8",
"F. c #F7F8F8",
"G. c #F9F9F9",
"H. c #FAFAFA",
"J. c #FBFBFB",
"K. c #FAFBFB",
"L. c #F9FAF9",
"P. c #FCFBFC",
"I. c #FBFCFC",
"U. c #FCFCFC",
"Y. c #FDFDFD",
"T. c #FCFDFD",
"R. c #FEFEFE",
"E. c #FFFFFF",
"W. c #FDFEFE",
"Q. c #FEFEFE",
/* pixels */
"                                                                                                                                ",
"  ,.e.w.e.e.e.w.w.w.e.e.e.e.w.w.w.e.e.e.w.w.w.e.e.e.w.w.w.e.r.r.e.w.e.e.e.e.w.w.w.e.e.e.e.e.e.w.w.w.e.e.e.w.w.w.e.e.e.e.w.e.,.  ",
"  e.E.A.E.E.E.E.G.G.E.E.E.E.G.G.E.E.E.E.G.G.G.E.E.E.G.G.G.E.E.E.E.G.E.E.E.E.G.G.E.E.E.E.E.E.E.G.G.G.E.E.E.E.G.G.E.E.E.E.V.E.w.  ",
"  w.G.g.V.E.E.v.z.z.V.E.E.V.z.z.v.I.P.G.z.z.z.G.P.G.z.z.z.V.E.E.v.g.V.E.E.v.j.z.v.E.G.G.G.G.G.z.z.z.G.P.E.v.z.z.V.E.E.V.g.G.0.  ",
"  e.E.G.V.v.V.E.E.E.G.V.V.G.E.E.E.V.V.A.E.E.E.A.V.V.E.E.E.G.V.V.I.E.G.V.V.G.E.E.E.V.V.G.E.E.E.E.E.E.G.V.V.E.E.E.G.V.v.V.G.E.w.  ",
"  e.E.E.V.v.p.p.g.g.p.u.u.p.g.g.s.u.u.i.g.g.s.u.u.u.s.g.g.i.u.u.p.g.p.u.u.p.g.g.s.u.u.i.g.g.g.g.g.g.i.u.u.s.g.g.i.p.c.V.E.E.w.  ",
"  e.E.E.v.E.H   * o * O @ * o O o o o o o o o o o o o o & o o o * & & o o * & # * * & & * * * * * * * % o * o *   H I.V.E.E.w.  ",
"  w.G.z.V.E.F                                                                                                     F E.V.E.E.w.  ",
"  w.G.z.V.E.F     < 4 2 2 2 2 3 2 2 2 2 2 2 2 2 2 2 2 2 3 2 2 2 2 2 2 2 2 2 2 2 2 2 2 2 3 2 2 3 2 2 3 2 2 4 <     F E.V.E.E.w.  ",
"  w.G.z.V.E.F     w.E.V.E.E.E.E.E.E.E.E.E.E.E.E.E.E.E.E.E.E.E.E.E.E.E.E.E.E.E.E.E.E.E.E.E.E.E.E.E.E.E.E.G.E.9.    F E.V.E.E.w.  ",
"  e.E.E.v.E.F     9.E.i.,.3.3.2.2.3.,.2.3.2.2.3.2.<.2.2.,.2.2.,.2.2.1.1.3.2.<.3.2.<.3.2.,.2.2.<.2.2.2.,.e.E.8.    H E.V.z.E.0.  ",
"  e.E.E.v.P.F     9.E.5.                                                                            .   L E.8.    H E.v.z.G.0.  ",
"  e.E.E.v.E.F     w.E.3.  = i 9 9 8 9 9 8 9 9 9 9 9 9 9 9 9 8 8 9 9 9 9 9 9 9 9 9 8 8 8 8 8 8 9 9 i 8   Y E.9.    H E.Z.z.E.0.  ",
"  w.I.z.V.E.F     9.E.8.  9 ( S A Z ^ S Z A A A A A A A A Z Z A ( ( ( ( ( ( ( ( A Z Z Z Z Z Z Z Z A a   Y E.8.    F E.V.I.E.w.  ",
"  w.G.z.V.E.F     9.E.8.  8 Z j d p p p d i q w w w w w w w p p p p p p 9 9 9 9 9 9 9 9 8 q f p d Z p   Y E.8.    F G.V.E.E.w.  ",
"  w.G.z.V.E.F     w.E.3.  7 Z d   . . . . . . . . . . . . . . . . . . . . . . . . . . . . . .   8 ( f   L E.8.    F E.V.E.E.w.  ",
"  e.E.E.v.E.F     9.E.8.  7 A f   9 S Z Z A f Z A A A f Z A A g g A A A f A A A A f Z A A A Z . 8 ( a   Y E.8.    H E.V.z.E.0.  ",
"  e.E.E.v.G.F     9.E.8.  8 Z p   w _ ` ' _ Z _ ' ) { A ( _ { ( S { ' ` Z _ ` { ] Z _ ` ' _ ) . 8 ^ a   Y E.8.    H E.v.z.G.0.  ",
"  e.E.E.v.E.F     w.E.3.  8 Z p   w _ ` ' _ Z _ ` _ { A _ _ { k d { ] _ Z _ ` ' ` Z _ ` ' _ ^ . 7 Z a   L E.8.    H E.Z.z.E.0.  ",
"  w.I.z.V.E.F     9.E.5.  8 A p   w ` ` ' _ Z _ ` _ { Z _ _ t c v r ` _ Z _ ` ` _ Z _ ` ' _ ^ . 8 Z a   Y E.8.    F E.V.E.E.w.  ",
"  w.G.j.V.E.F     8.E.8.  8 A p   e ` _ ` ` Z ) ` _ { Z ) s ;.X.| +.r _ Z _ ` ` _ Z _ ` ' _ ( . 8 Z a   Y E.8.    F G.V.E.E.w.  ",
"  w.G.z.V.E.F     w.E.3.  8 A p   w ` ^ ` ` Z _ ` _ { S / B -.    ~ x ( A _ ` ` _ Z _ ` _ _ ( . 8 Z a   L E.9.    F E.V.E.E.w.  ",
"  e.E.I.v.E.F     0.E.5.  8 A p   w { _ ` _ Z _ ` _ { Z ( u m $ + m C ` Z _ ` ` _ Z _ ` ( ` ^ . 8 Z a   L E.8.    H E.V.z.E.0.  ",
"  e.E.E.v.I.F     8.E.9.  9 A p   w { _ ` ` Z _ _ _ { Z ` Z N l ; Q j } Z _ ` ` _ Z _ ` _ { ^ . 8 Z a   Y E.8.    H E.Z.z.G.0.  ",
"  e.E.E.v.E.F     0.E.5.  8 A p   w { _ ` ` Z ` _ _ { A ` j N n z R h { Z _ ` ` _ Z _ ` _ { ( . 8 Z a   Y E.8.    H E.v.z.E.0.  ",
"  e.E.E.G.E.F     0.E.5.  8 A p   w { _ _ ` Z ` _ _ { Z _ ( t ! E y D ] Z _ ` ` _ Z _ ` _ { ( . 8 Z a   L E.8.    F E.V.P.E.w.  ",
"  e.E.E.E.E.F     8.E.9.  9 A p   w { _ _ ` Z ` _ _ { Z ^ { ( 7 : A } ` Z _ _ ` _ Z ` _ _ { ( . 7 Z f   Y E.8.    F I.V.E.E.w.  ",
"  e.E.G.I.E.F     9.E.5.  8 A p   w ] _ ` ` Z ` _ _ { Z ^ ` } ` ^  .' ' Z ` ^ ` _ Z ' _ ` { ^ . 7 Z a   Y E.8.    F E.V.E.E.w.  ",
"  w.G.z.V.E.F     w.E.4.  8 A p   w ] ` ` ` Z ` _ _ { A ^ ` { ^ A { ` ` Z ' ` ` _ Z ` _ ` { ^ . 8 Z i   L E.9.    H E.Z.z.E.0.  ",
"  w.G.z.V.E.F     8.E.9.  8 A p   w ] { ` _ Z ` ' ' { A ^ ` { ^ A { ` _ Z _ { ` _ Z ' _ ` { ( . 8 S i   Y E.8.    H E.v.z.G.0.  ",
"  w.I.z.V.E.F     9.E.5.  8 ( f   q ] ] ` ` Z ` { ' ] Z ^ ` { ^ A { ` _ Z ` _ _ ` Z ` { ' { ^ . 8 S i   Y E.8.    H E.Z.z.E.0.  ",
"  e.E.E.v.E.F     w.E.4.  8 ( f   q ] ] ` ` Z ` ] ` ` A ^ ` { ^ A { ` _ Z { ` ` { Z {  .{ { ^ . 8 S i   L E.9.    F E.V.E.E.w.  ",
"  e.E.E.v.I.F     8.E.9.  8 ( f   w ] ] ` _ Z ` { ` ` A ^ ` { ^ A { ` _ Z ' { { ' V f d ( { ^ . 8 S i   Y E.8.    F I.V.E.E.w.  ",
"  e.E.E.v.E.F     9.E.6.  8 ( f   w ' ] ' ' Z ` { ` _ A ^ ` { ^ A { ` _ Z ' ] ' { 9 b M 0 _ _ . 8 ( p   Y E.8.    F E.V.E.E.w.  ",
"  w.G.z.V.E.F     w.E.3.  7 A f   w ] ] ] { Z ` { ' _ A ^ ` { ^ A { ` _ Z ' ' } w o.q.=.#.0 A . : ( f   L E.9.    H E.Z.z.E.0.  ",
"  w.G.j.V.E.F     9.E.8.  7 Z f   w ] ] { { Z ` { ' _ A ( ' { ^ A { ` _ Z ' '  .7 O.:.*.$.5 A X - D f   Y E.8.    H E.v.z.G.0.  ",
"  w.G.z.V.E.F     9.E.8.  7 Z f   q ] _ ` { Z ` { ' ` A _ { { ^ A { ` _ Z ' '  .9 W %.&.@.6 A X - S f   Y E.8.    H E.Z.z.E.0.  ",
"  e.E.E.v.E.F     w.E.3.  7 Z f   w ] ( ` { Z ` { ` ` Z _ { ] ( A { ` _ Z ' { { ` 6 T W y D ( . - S a   L E.9.    F E.V.E.E.w.  ",
"  e.E.E.v.P.F     9.E.8.  8 A f   w ] _ _ { Z ` { ' _ Z _ ' ` ( A { ] ' Z { ' ` { C 9 9 A  .^ . - S f   Y E.8.    F I.V.E.E.w.  ",
"  e.E.E.v.E.F     9.E.8.  7 A f   w ` _ _ { Z ` ] ' { A _ ` ` ( A { ] ' Z { ' _ { Z { ..{ { ( . - S f   Y E.8.    F E.V.P.E.w.  ",
"  w.G.z.V.E.F     w.E.3.  7 Z f   w ` _ _ { Z ` _ _ { Z _ ' ` ( A ` ' ' Z ' ' _ { Z ` ] ` { ^ . - S f   L E.9.    H E.V.z.E.0.  ",
"  w.G.z.V.E.F     9.E.8.  7 Z f   w ` _ ( ` Z _ _ ` { Z _ ' ` ( A ` ' ' Z ] ' _ { Z _ ' _ { ^ . : A p   Y E.8.    H E.Z.z.G.0.  ",
"  w.E.z.V.E.F     9.E.8.  7 Z f   w ` ` ` _ Z _ ` { ` A _ ' ` ( A ` ' ' Z { ' _ { Z _ _ _ { ^ . : A i   Y E.8.    H E.Z.z.E.w.  ",
"  e.E.E.v.E.F     w.E.3.  7 Z f   w ` ` ' _ Z _ ` ] _ A _ ' ` ( A ` ' ' Z ] ' _ { Z _ ` _ { ^ . : Z p   L E.9.    F E.V.E.E.w.  ",
"  e.E.E.v.E.F     9.E.6.  8 Z p   w ` ` ' _ Z _ ` [ ] A _ ' ` ( A ` ' ' Z ] _ _ ` Z _ ` ' { ^ . : A p   Y E.8.    F G.V.E.E.w.  ",
"  e.E.E.v.E.F     9.E.8.  9 A p   w ` ` ' _ Z _ _ ] { Z _ ' ` ( A ` ' ' Z ' _ ` _ Z _ ` { { ^ . : Z i   Y E.8.    F E.V.E.E.w.  ",
"  w.G.z.V.E.F     w.E.3.  8 A p   w _ ` ' _ Z _ ` _ _ A _ ` _ ( A _ ' _ Z ] _ _ _ Z _ ` ` { ^ . : Z i   L E.9.    H E.Z.z.E.0.  ",
"  w.G.z.V.E.F     9.E.5.  8 A p   w ` ` ' _ Z _ ` ] _ A _ ] ' ( A ' ' ( Z { _ _ _ Z _ _ _ { ^ . : Z p   Y E.8.    H E.v.z.G.0.  ",
"  w.E.z.V.E.F     8.E.9.  8 A p   w ` ` ' ` Z _ ` ' ` A ( { { ( A { ' _ Z { _ _ _ Z ' { _ { ^ . - Z p   Y E.8.    H E.v.z.E.0.  ",
"  e.E.E.v.E.F     w.E.3.  8 A p   w _ ` ' _ Z _ _ ] _ Z _ { ] ( A { ' _ Z ' _ _ _ Z {  ._ { ^ . 7 A p   L E.9.    G E.V.E.E.w.  ",
"  e.E.E.v.I.F     0.E.5.  9 A p   w ` ` ] ] Z _ ` ' _ A _ { ` ^ S { ' _ Z ' _ ' ' Z ' ' _ { ( . 9 ( p   Y E.8.    F I.V.E.E.w.  ",
"  e.E.E.v.E.F     8.E.9.  8 A 9   q S A S D f A D A S g A D D V j ( S A g S A S D f A D A S A X 8 ( a   Y E.8.    H E.V.E.E.w.  ",
"  w.G.z.V.E.F     0.E.3.                                                                            .   L E.9.    H E.v.z.E.0.  ",
"  w.G.z.V.E.F     9.E.9.1 4 4 4 4 3 4 4 3 4 4 3 4 4 3 4 4 4 4 3 4 4 3 4 4 4 4 4 4 3 4 4 3 4 4 3 4 4 4 1 >.E.8.    H E.v.z.G.0.  ",
"  w.E.z.V.E.F     w.E.E.E.E.E.E.E.E.E.E.E.E.E.E.E.E.E.E.E.E.E.E.E.E.E.E.E.E.E.E.E.E.E.E.E.E.E.E.E.E.E.E.E.E.0.    H E.V.z.E.0.  ",
"  e.E.E.v.E.F     H L J J J J J J J J J J J J J J J J J J J J J J J J J J J J J J J J J J K K J J J J J J L F     G E.V.E.E.w.  ",
"  e.E.E.v.G.F   .                                                                                             .   H E.V.E.E.w.  ",
"  e.E.E.v.I.F                                                                                                     F E.V.E.E.w.  ",
"  e.E.E.V.v.0.5.8.8.5.5.5.5.8.8.8.5.5.5.8.8.8.5.5.5.8.8.8.5.5.5.7.9.5.5.5.5.8.8.5.5.5.5.8.8.8.5.5.5.8.8.8.8.8.9.5.w.v.V.E.E.w.  ",
"  e.E.E.V.z.G.E.E.E.E.E.E.E.E.E.E.E.E.E.E.E.E.E.E.E.E.E.E.E.E.E.E.E.E.E.E.E.E.E.E.E.E.E.E.E.E.E.E.E.E.E.E.E.E.E.E.G.z.G.E.E.w.  ",
"  e.E.G.v.c.z.z.v.v.v.Z.Z.v.v.v.v.v.Z.v.v.v.v.v.Z.v.v.v.v.v.v.Z.v.z.v.Z.Z.v.v.v.v.Z.V.v.v.v.v.v.V.Z.v.c.v.v.v.v.z.z.v.V.G.E.w.  ",
"  e.E.V.E.E.E.E.G.G.E.E.E.E.G.G.G.E.E.E.G.G.G.E.E.E.G.G.G.E.E.E.E.G.E.E.E.E.G.G.G.E.E.E.G.G.G.E.E.E.G.G.G.G.G.G.E.E.E.E.G.E.w.  ",
"  ,.e.w.e.e.e.e.w.w.e.e.e.e.w.w.w.e.e.e.w.w.w.e.e.e.w.w.w.e.e.e.e.w.e.e.e.e.w.w.e.e.e.e.w.w.w.e.e.e.w.w.w.w.w.w.e.e.e.e.w.e.,.  ",
"                                                                                                                                "
};
