/* XPM */
static const char *path[] = {
/* columns rows colors chars-per-pixel */
"64 64 159 2 ",
"   c #010101",
".  c #090606",
"X  c #0C0807",
"o  c #0D0908",
"O  c #120E0C",
"+  c #16100F",
"@  c #161311",
"#  c #1B1413",
"$  c #1C1817",
"%  c #1C1718",
"&  c #1E1818",
"*  c #211616",
"=  c #231816",
"-  c #221718",
";  c #241C1B",
":  c #2A1D1C",
">  c #242415",
",  c #242A14",
"<  c #2D211E",
"1  c #2C2A1B",
"2  c #30221E",
"3  c #312C1F",
"4  c #271F21",
"5  c #281F21",
"6  c #252525",
"7  c #2C2221",
"8  c #2B2B2B",
"9  c #322522",
"0  c #362A26",
"q  c #362A27",
"w  c #362924",
"e  c #352924",
"r  c #382924",
"t  c #382825",
"y  c #382A25",
"u  c #392A26",
"i  c #392B26",
"p  c #3A2A26",
"a  c #3A2B26",
"s  c #3B2B26",
"d  c #3B2B27",
"f  c #392C27",
"g  c #3A2C26",
"h  c #3B2C27",
"j  c #3B2D27",
"k  c #3C2C27",
"l  c #3C2D27",
"z  c #3A2B26",
"x  c #3A2C28",
"c  c #3B2C28",
"v  c #3A2D28",
"b  c #3B2E29",
"n  c #3C2D28",
"m  c #3C2E28",
"M  c #3D2E28",
"N  c #3C2E29",
"B  c #3D2E29",
"V  c #3D2F29",
"C  c #3E2F28",
"Z  c #3E2E29",
"A  c #3E2F29",
"S  c #3F2F29",
"D  c #3E2E2A",
"F  c #3E2F2A",
"G  c #3F2F2A",
"H  c #3E2F2B",
"J  c #3D2E29",
"K  c #3B3027",
"L  c #3A3025",
"P  c #3E3029",
"I  c #3E302A",
"U  c #3F302A",
"Y  c #3F312A",
"T  c #3F302B",
"R  c #3F312B",
"E  c #3F312C",
"W  c #3E302A",
"Q  c #3D3330",
"!  c #402F29",
"~  c #40312A",
"^  c #41312A",
"/  c #40302B",
"(  c #40312B",
")  c #41312B",
"_  c #40322A",
"`  c #40322B",
"'  c #41322B",
"]  c #41332B",
"[  c #42322B",
"{  c #41312C",
"}  c #42312C",
"|  c #40322C",
" . c #41322C",
".. c #42322C",
"X. c #43322C",
"o. c #42332C",
"O. c #43332C",
"+. c #42322D",
"@. c #43322D",
"#. c #42332D",
"$. c #43332D",
"%. c #44332C",
"&. c #44332D",
"*. c #42342C",
"=. c #43342C",
"-. c #42342D",
";. c #43342D",
":. c #43342E",
">. c #43352E",
",. c #44342C",
"<. c #44342D",
"1. c #44342E",
"2. c #45352E",
"3. c #45352F",
"4. c #45362F",
"5. c #46362F",
"6. c #42322C",
"7. c #443630",
"8. c #453731",
"9. c #463730",
"0. c #453631",
"q. c #473831",
"w. c #463934",
"e. c #473932",
"r. c #493933",
"t. c #483A33",
"y. c #493A34",
"u. c #493B35",
"i. c #4A3A34",
"p. c #4A3B34",
"a. c #4A3B35",
"s. c #4B3D37",
"d. c #4A3B35",
"f. c #4B3E39",
"g. c #4D403A",
"h. c #4F413B",
"j. c #4E413C",
"k. c #50443F",
"l. c #51433E",
"z. c #4D4440",
"x. c #534641",
"c. c #534741",
"v. c #524641",
"b. c #544842",
"n. c #544843",
"m. c #554844",
"M. c #554944",
"N. c #554A45",
"B. c #564B47",
"V. c #554944",
"C. c #574D48",
"Z. c #584E49",
"A. c #594E4A",
"S. c #5A4F4B",
"D. c #594E4A",
"F. c #5B504C",
"G. c #5D524F",
"H. c #5E544F",
"J. c #5E5550",
/* pixels */
"                                                                                                                                ",
"                                                                                                                                ",
"    # * < 9 9 9 < * 9 9 9 9 9 9 7 9 9 < O + # # ; < < < 7 < 9 9 9 9 < : 9 9 9 9 9 9 9 9 9 9 # # - - - - # # < 9 9 - # < 9 9 X   ",
"    * : H o.o.o.' H o.o.o.o.o.o.w H ' H 2 ; ; ; 9 ' t 9 < 2 o.o.o.o.' ' o.o.o.o.e 9 E o.o.o.: t : < 2 2 : ; f <.o.U H o.o.o.O   ",
"    e o.<.o.o.o.H : 9 o.;.;.o.9 k o.o.' ' e ; ; 9 H 2 2 7 : ' ;.;.;.o.o.o.o.o.e 7 7 7 ; c U < H ; ; ; ; : U ;.;.o.&.o.;.;.;.O   ",
"    e ;.;.' 7 o.U : 9 o.o.o.o.' o.o.o.o.H U H H ' ' e < 2 k ' o.;.<.o.o.o.o.o.e ; 5 7 - f < ' o.U ' 9 : f <.Z.<.o.o.o.;.o.<.O   ",
"    e <.w.;.o.o.o.o.o.o.o.o.o.i.7.o.o.' w o.o.o.o.o.o.o.o.&.o.o.;.i.i.i.<.o.o.' 7 ; ; ; c ' o.o.o.o.o.o.o.o.G.e.o.o.H H o.&.O   ",
"    e ;.B.7.;.o.o.o.o.o.o.o.o.F.h.o.o.o.B.;.o.o.o.o.o.o.o.o.o.<.h.Z.Z.Z.s.o.o.o.o.H : H o.o.o.o.o.o.o.o.o.o.B.<.o.t : 2 k o.O   ",
"    e o.o.c o.o.o.U w w c o.o.k.i.o.o.o.o.o.o.o.o.o.o.o.o.o.o.r.v.o.o.o.o.o.o.o.o.o.o.o.o.o.o.o.o.o.o.o.o.o.o.o.o.t : 2 t o.O   ",
"    e o.o.t o.o.H ; ; 7 7 e o.o.o.o.o.o.o.o.o.o.o.o.o.o.' ' o.o.o.o.o.o.o.o.o.o.o.o.' L ' o.o.o.o.o.o.o.o.o.o.o.o.o.9 t o.o.O   ",
"    9 o.o.<.o.o.H ; : < < 9 o.o.o.o.o.o.o.o.o.o.o.o.o.o.' t w ' o.o.r.n.B.7.o.o.o.' e , 1 ' o.o.o.' H U o.o.o.o.o.o.o.o.o.;.O   ",
"    e &.;.;.;.o.' ; ; ; ; 9 o.o.' 9 9 U o.o.o.o.o.t 9 U ' t e ' o.o.r.v.n.7.o.o.' 3 , , 3 ' o.o.o.H < 9 U U 9 e o.o.o.' t e X   ",
"    e <.;.;.o.o.;.e - - : U o.o.e : ; ; o.o.o.o.o.U H U o.o.o.o.o.o.o.o.o.o.o.o.o.y > ; H o.o.o.o.w ; : H H : < o.o.o.H : : .   ",
"    - : < U o.o.o.H < 9 <.o.o.o.o.9 < 7 o.o.o.;.o.o.o.9 < H o.o.o.o.o.o.o.o.o.o.o.' f f ' o.o.o.o.H 9 e ' o.' o.&.&.o.o.t 9 O   ",
"    # ; : 9 o.o.o.' o.r.p.<.o.o.&.o.o.o.o.o.o.o.o.o.o.9 < H o.o.o.o.o.o.o.o.o.o.o.o.o.o.o.o.o.o.7.o.o.o.o.o.o.o.o.;.o.o.o.o.O   ",
"    = < : 9 o.o.o.o.o.7.r.<.&.o.o.o.o.o.o.o.o.o.o.o.o.o.o.o.o.o.o.o.o.o.o.o.o.o.o.o.o.o.' ' o.7.v.o.o.o.o.o.o.o.o.t 9 o.o.o.O   ",
"    ; : : 9 o.o.o.o.o.<.<.o.o.o.o.o.&.o.o.;.o.o.h.Z.s.o.o.o.o.o.o.o.o.o.o.o.o.o.o.o.o.o.9 : U o.o.o.o.o.o.o.o.o.o.e 9 o.o.o.O   ",
"    # - : 2 ;.o.o.o.o.o.;.;.o.o.o.o.2 : o.o.o.o.<.e.<.o.o.o.o.o.o.o.o.o.o.o.o.o.;.o.o.o.U H o.o.o.o.o.o.o.o.o.o.o.o.o.o.o.o.O   ",
"    * : < H o.o.o.o.s.Z.v.o.o.o.o.o.H H o.' U ' ' ' o.o.o.' 2 9 o.o.o.' 9 < 9 ' o.o.o.o.o.o.o.o.o.o.< H o.o.o.o.o.o.o.f 2 ' O   ",
"    9 H U o.o.o.o.o.c w t o.o.o.o.o.o.o.' e ; 9 ' ' o.o.U 2 : 9 o.o.o.9 ; ; ; 9 o.o.o.o.o.o.o.o.o.o.< H o.o.7.e.e.;.U : : 9 O   ",
"    e o.o.o.o.o.<.f.: : 2 k o.o.o.o.o.o.t - - & 9 ' o.i.e : : ' o.o.o.t : ; : t ' o.o.o.o.o.o.o.7.i.' o.o.o.B.Z.C.i.9 : : 9 O   ",
"    e o.o.o.o.o.7.B.9 9 t o.o.o.o.o.o.o.H 7 - ; e ' o.l.E 9 9 ' o.o.o.' t 9 t ' i.l.k.k.j.;.o.o.7.w.e H o.o.o.;.o.o.o.9 f j.@   ",
"    e o.o.o.o.o.o.;.o.o.o.o.o.o.o.o.o.o.o.H 9 t ' ' o.o.o.o.o.o.o.o.o.o.o.o.o.' s.k.v.v.l.;.o.U 7 5 4 7 ' ' o.o.o.o.o.o.e.n.@   ",
"    e o.o.o.o.o.o.7.s.o.o.o.o.o.o.o.o.o.o.o.o.o.o.o.o.o.o.o.o.' ' o.o.o.o.o.o.o.o.' e 9 U o.o.H ; 7 7 5 9 o.o.o.o.o.o.o.o.;.O   ",
"    9 o.o.;.;.o.o.e.h.o.;.;.o.o.o.o.;.;.o.o.o.o.o.o.o.o.H ' ' ' ' o.o.o.o.o.o.o.o.' e 9 U o.o.H ; 7 7 7 ; e o.o.o.o.&.o.o.o.O   ",
"    9 o.;.;.;.o.o.o.o.;.;.;.o.o.o.o.;.;.o.o.o.o.o.o.o.f 7 7 f k ' ' ' ' o.o.o.o.o.o.o.o.o.o.o.H - ; 4 ; ; o.o.o.o.o.' ' ' o.O   ",
"    e o.;.o.o.o.o.o.o.;.o.o.o.o.o.o.o.o.o.o.o.o.o.o.o.9 7 ; < f ' ' o.o.' o.o.o.o.o.o.o.' 9 9 H f t 7 - - p.&.o.o.<.<.] ' o.O   ",
"    9 o.o.o.o.o.o.o.o.o.o.o.o.o.o.< H o.o.o.o.o.o.o.' 9 ; : < U ' o.j.j.' o.o.o.o.o.o.o.9 H ' o.o.o.o.o.o.&.' o.o.;.r.;.' o.O   ",
"    ; ' o.o.H o.o.o.o.o.o.o.o.' ' t ' ' ' ' ' o.o.o.o.' e e ' ' o.o.o.o.' o.o.o.o.o.o.o.t o.o.o.o.o.o.o.o.o.' o.f t t t ' o.O   ",
"    * ' o.H 9 o.o.o.o.o.o.o.o.f t ' o.' ' ' <.e.o.o.o.o.' ' ' ' o.o.o.' ' ' o.o.o.o.o.H ' &.o.o.o.o.o.o.o.o.' f : : ; : H o.O   ",
"    : ' ' ' o.o.' t H o.o.H e ; ; 9 ' o.' ' w.B.H t U o.' ' ' ' ' o.' ' f 9 9 e ' ' ' 9 H o.o.o.o.o.o.o.o.o.i.< : : : : 9 t X   ",
"    : 9 U o.o.o.H : t o.o.e ; 5 7 ; 9 ' ' ' E w.9 2 9 ' ' o.e k ' ' ' e < : - : f ' ' t ' o.<.v.B.j.o.o.o.o.s.< - ; ; : 9 ; X   ",
"    * : 9 o.o.o.' f U o.o.H < ; ; - 9 ' o.o.o.H 9 2 e ' ' e < f ' ' H ; ; < : : 9 ' ' o.o.o.o.s.f.i.o.o.o.o.o.t 9 e > f H f O   ",
"    # * : e o.o.o.o.U e o.o.H e ; 7 ' o.o.o.o.o.H t H o.' 2 t 9 ' ' H < - ; ; : f ' ' ' o.o.o.o.o.o.o.o.o.o.o.o.o.U , o.o.o.O   ",
"    * : : 9 o.o.o.o.7 - e B.B.n.z.v.7.o.o.o.o.o.o.o.o.o.o.k ' k o.o.o.f e e 9 t ' H e 9 U o.o.o.o.o.o.o.o.o.o.o.o.' i o.o.o.O   ",
"    ; : : 9 o.o.o.7 & & ; Q s.s.s.f.<.o.o.o.o.o.o.o.o.o.o.o.o.o.o.o.o.o.o.o.' ' o.9 ; 4 7 ' H 9 e o.o.o.o.o.o.o.o.o.o.o.o.o.O   ",
"    = ; ; < ;.o.o.U ; - - 9 o.o.o.o.o.o.o.o.o.o.<.<.o.o.o.o.o.o.o.o.o.o.o.o.' H 9 7 7 5 ; ' H 7 7 9 ' o.o.o.o.H H o.o.o.o.o.O   ",
"    * : 3 1 e o.o.o.c < 9 o.o.o.o.o.o.o.o.o.o.o.7.<.o.o.o.o.o.o.o.o.o.o.o.o.' e ; 7 7 5 ; ' U < 9 o.' o.o.o.' 9 < ' o.o.o.' O   ",
"    9 U U U ' o.o.o.' ' o.o.o.o.o.o.;.;.o.o.o.o.k.f.;.o.o.o.o.o.o.o.o.o.o.o.o.e - ; 7 7 H o.o.' ' ' o.o.o.o.o.o.o.H f o.H < X   ",
"    e o.o.o.o.' e e ' ' o.o.o.o.o.o.o.o.' f o.o.o.o.o.o.o.o.U o.o.o.o.o.o.o.o.o.e 7 H o.<.;.o.o.o.o.o.o.o.o.o.o.t : ; e o.o.O   ",
"    e ;.o.o.o.' 7 7 o.o.o.o.o.o.o.o.o.o.H 9 o.o.o.o.o.o.o.o., y o.o.o.o.o.o.o.o.o.o.o.o.o.o.o.o.o.o.o.o.o.o.o.o.9 : : 9 o.o.O   ",
"    e o.o.o.o.o.o.o.o.o.o.o.o.<.7.7.<.o.' H o.o.o.o.o.o.' e > > <.o.o.h.s.o.o.o.o.o.o.o.o.o.o.o.o.' s.s.o.o.o.o.U 9 : ' o.o.O   ",
"    e o.o.o.o.o.o.' U ' o.o.o.b.H.H.B.;.o.o.o.o.o.o.o.o.U < > < <.o.' 7.7.o.o.o.o.o.o.o.o.o.o.o.' ' <.v.f.&.o.o.o.' H o.o.o.O   ",
"    e o.o.o.o.' e ; ; : H o.o.o.o.o.o.o.o.o.o.o.o.o.o.o.' U > 1 ! U ' o.o.o.o.o.o.o.o.o.o.H : < U ' ' o.n.J.Z.;.o.o.o.U t t O   ",
"    e o.o.o.;.H ; 7 7 ; 7 ' o.o.o.o.o.o.o.o.o.' ' o.o.o.o.o.f < 7 e ' o.o.o.o.o.o.o.o.o.o.7 ; ; 7 o.' o.;.<.<.o.o.o.o.9 ; ; X   ",
"    e H H ;.;.H ; 7 7 ; < ' ' o.o.o.o.o.o.U t e 9 f o.o.o.o.5 7 4 9 o.o.o.o.o.o.o.o.o.o.o.U ; ; U ' ' ' o.o.o.o.o.o.o.: : : X   ",
"    9 7 9 ;.o.' 7 & - ; e ' ' o.o.;.o.o.o.k ; ; : j.Z.i.o.o.c ; ; 9 ' o.o.o.o.o.H 9 9 o.o.o.o.' ' ' H < ; e o.o.o.;.o.: 2 < X   ",
"    - < 9 ' o.&.' e e t o.o.o.o.o.o.o.o.H 9 : : : 7.f.7.o.o.U 7 7 e ' ' f e t U f : < ' ' ' ' ' ' ' w : 7 ; U o.o.o.o.: 2 < X   ",
"    - < ; t &.o.o.o.o.o.o.o.o.o.o.o.o.o.' f ; : 9 ' o.o.o.o.o.o.o.o.' H 9 : < 9 ' H H ' ' o.t t ' ' t : : < ' o.o.;.Z.: : : X   ",
"    ; 2 ; 9 o.o.o.o.o.o.H t H o.o.o.o.o.o.o.' ' ' o.o.o.o.o.o.o.o.o.o.9 : : < e ' ' ' ' o.t : : t ' o.w 7 U o.o.o.;.i.c : : X   ",
"    = 2 : : t o.o.o.o.o.9 : t o.' H < H o.o.o.o.o.o.o.o.o.o.9 w o.o.o.t 9 9 9 ' ' ' o.o.' t : : e ' o.o.o.o.o.o.o.o.E < < : X   ",
"    = 2 2 ; 9 o.o.o.o.o.' ' o.o.' 9 < : o.o.o.o.o.o.o.o.9 H t H o.o.o.o.o.o.' ' f e ' o.o.o.H H o.o.o.o.o.o.o.o.o.o.: & & % .   ",
"    = : : : t &.o.o.o.;.o.o.o.o.o.' 2 2 o.o.o.o.o.o.o.o.H U o.o.o.o.o.o.o.o.o.' 9 ; H o.o.o.o.o.o.o.o.o.o.o.o.o.o.o.< & $ % .   ",
"    - ; ; < ' &.o.o.;.o.o.o.o.o.o.;.;.o.o.o.o.o.U H ' o.o.U ' ;.o.o.o.o.o.o.o.o.o.o.o.o.9 U o.o.o.o.o.o.o.U ; ; U o.U - % % .   ",
"    # < < : 9 o.9 2 o.o.' o.o.o.7.<.o.o.o.o.o.o.9 ; t o.' < < ' o.o.o.e 2 9 U o.o.o.o.o.U o.o.o.o.o.o.o.o.9 ; - e o.o.9 - - .   ",
"    # : < : 9 ' 2 : ' H 9 2 t o.B.r.o.o.o.o.o.o.c w H o.' < U o.o.' k : : : 9 ' o.o.o.o.o.o.o.o.o.o.o.o.o.o.< < o.o.o.o.c c O   ",
"    ; 9 9 t o.o.o.o.o.H 2 < t o.o.o.o.o.o.o.o.o.o.' t e H o.' o.o.' ' < % < L , <.o.o.w.o.t ; < U o.o.o.H c ' o.o.o.o.o.o.o.O   ",
"    7 <.o.o.o.o.o.&.&.o.' ' c e U o.o.<.s.o.o.o.k t : : 9 H o.' H U o.H c ' L 3 <.o.o.Z.7.; : : 7 o.o.o.9 < U o.o.o.o.o.o.;.O   ",
"    - w o.e ; ; ; U o.o.' f ; & 7 ' o.<.v.;.o.f 2 < < < : f o.9 : f o.o.o.o.o.o.o.o.o.o.o.f ; - < o.o.o.o.;.;.o.o.e < < e <.O   ",
"    9 o.U ; 7 7 7 - ' s.h.9 & & & c ;.;.o.o.o.9 : : : < : c o.;.o.o.o.o.o.o.;.;.o.' 9 < H ;.o.o.o.o.o.;.;.;.o.o.w ; < : ; c O   ",
"    9 U c - ; - - % U o.o.t ; % 7 H U U U U H t < * = ; 9 H H U U H H H U U U U H H : ; f H H U U U U U U U H H 9 ; : : : e O   ",
"    . . .           . . . . .   . . . . . . . . .       . . . . . . . . . . . . . .     . . . . . . . . . . . .           .     ",
"                                                                                                                                ",
"8 8 8 8 8 6 6 6 6 6 6 6 8 8 8 8 8 8 8 6 6 6 6 6 6 6 8 8 8 8 8 8 8 6 6 6 6 6 6 6 8 8 8 8 8 8 8 6 6 6 6 6 6 6 6 6 6 6 8 8 8 8 8 8 "
};
