/* XPM */
static const char *path[] = {
/* columns rows colors chars-per-pixel */
"64 64 166 2 ",
"   c #000000",
".  c #171414",
"X  c #1B1515",
"o  c #1F1817",
"O  c #1F1819",
"+  c #211615",
"@  c #231917",
"#  c #251C1B",
"$  c #2A1D1C",
"%  c #1D2610",
"&  c #232214",
"*  c #2C211E",
"=  c #31221F",
"-  c #271F21",
";  c #281F21",
":  c #2E2321",
">  c #322622",
",  c #352924",
"<  c #3A2B26",
"1  c #362B28",
"2  c #3D2E29",
"3  c #353021",
"4  c #3C3127",
"5  c #3F302A",
"6  c #343434",
"7  c #3D3C3D",
"8  c #413127",
"9  c #43332C",
"0  c #48372F",
"q  c #453631",
"w  c #493730",
"e  c #463933",
"r  c #493A34",
"t  c #4C3E39",
"y  c #4E413C",
"u  c #50433E",
"i  c #424243",
"p  c #4F4F4F",
"a  c #524641",
"s  c #554A45",
"d  c #584C46",
"f  c #545454",
"g  c #585757",
"h  c #5D5C5C",
"j  c #60605F",
"k  c #656564",
"l  c #686767",
"z  c #6A6969",
"x  c #70706F",
"c  c #737373",
"v  c #7E7E7E",
"b  c #8F8F8F",
"n  c #9E9E9E",
"m  c #ABABAB",
"M  c #CECECE",
"N  c #D0CFCF",
"B  c #CFD0CF",
"V  c #D0D0CF",
"C  c #D4D4D4",
"Z  c #D8D7D7",
"A  c #D7D8D7",
"S  c #D8D8D7",
"D  c #D7D7D8",
"F  c #D8D7D8",
"G  c #D8D7D8",
"H  c #D7D8D8",
"J  c #D7D8D8",
"K  c #D8D8D8",
"L  c #D8D9D8",
"P  c #D9DAD9",
"I  c #DADADA",
"U  c #DBDBDB",
"Y  c #DBDCDB",
"T  c #DCDCDC",
"R  c #DDDCDD",
"E  c #DDDDDD",
"W  c #DEDDDE",
"Q  c #DEDEDE",
"!  c #DFDEDE",
"~  c #DFDFDF",
"^  c #DEDFDF",
"/  c #DBDBDB",
"(  c #E0DFDF",
")  c #DFE0DF",
"_  c #E0E0E0",
"`  c #E0E1E0",
"'  c #E1E1E1",
"]  c #E1E1E0",
"[  c #E2E1E1",
"{  c #E1E2E1",
"}  c #E2E2E2",
"|  c #E2E3E2",
" . c #E3E3E3",
".. c #E2E3E3",
"X. c #E3E4E3",
"o. c #E4E4E3",
"O. c #E4E4E4",
"+. c #E5E5E5",
"@. c #E5E6E5",
"#. c #E6E6E5",
"$. c #E6E6E6",
"%. c #E6E7E6",
"&. c #E7E7E7",
"*. c #E3E3E3",
"=. c #E7E8E7",
"-. c #E8E7E8",
";. c #E8E8E8",
":. c #E9E9E9",
">. c #EAE9E9",
",. c #EAEAEA",
"<. c #EAEBEA",
"1. c #EBEBEB",
"2. c #EBECEB",
"3. c #EBEBEC",
"4. c #EDEDED",
"5. c #ECECEC",
"6. c #EEEEEE",
"7. c #EFEEEE",
"8. c #EFEFEF",
"9. c #EEEFEF",
"0. c #EBEBEB",
"q. c #F0EFEF",
"w. c #EFF0EF",
"e. c #F0F0F0",
"r. c #F0F1F0",
"t. c #F1F1F1",
"y. c #F0F1F1",
"u. c #F1F2F1",
"i. c #F1F2F2",
"p. c #F2F2F2",
"a. c #F2F2F3",
"s. c #F3F2F3",
"d. c #F2F3F3",
"f. c #F3F3F3",
"g. c #F4F4F3",
"h. c #F4F4F4",
"j. c #F5F5F5",
"k. c #F5F6F6",
"l. c #F6F6F6",
"z. c #F7F7F7",
"x. c #F7F6F7",
"c. c #F3F3F3",
"v. c #F7F7F8",
"b. c #F8F7F8",
"n. c #F8F8F8",
"m. c #F9F9F9",
"M. c #F8F9F9",
"N. c #FAFAFA",
"B. c #FBFBFB",
"V. c #FBFCFB",
"C. c #FCFCFC",
"Z. c #FDFCFC",
"A. c #FCFDFC",
"S. c #FDFDFD",
"D. c #FCFDFD",
"F. c #FEFDFD",
"G. c #FDFDFE",
"H. c #FEFDFE",
"J. c #FDFEFE",
"K. c #FEFEFE",
"L. c #FFFEFE",
"P. c #FEFFFE",
"I. c #FEFEFF",
"U. c #FFFFFF",
"Y. c #FEFFFF",
"T. c #FEFEFE",
/* pixels */
"Y.Y.Y.Y.f.C D K C 4.Y.Y.Y.Y.T C K C T Y.Y.Y.Y.,.C K C C h.Y.Y.Y.B.C C K C ,.Y.Y.Y.Y.T C C C K Y.Y.B.C C C C O.Y.Y.Y.Y._ C C C C ",
"Y.Y.Y.Y.f.C C C C 4.Y.Y.Y.Y.T C K C T Y.Y.Y.Y.,.C K C C h.Y.Y.Y.B.C C K C ,.Y.Y.Y.Y.T C C C K Y.Y.B.C C C C O.Y.Y.Y.Y._ C C C C ",
"Y.Y.Y.Y.f.C S S C 4.Y.Y.Y.Y.T C K C T Y.Y.Y.Y.,.C K F C B.Y.Y.Y.h.C K K C ,.Y.Y.Y.Y.T C D C K Y.Y.B.K D K C O.Y.Y.Y.Y._ C C C C ",
"Y.Y.Y.Y.f.C C C C 4.Y.Y.Y.Y.K C C C T Y.Y.Y.Y.,.C C C C B.Y.Y.Y.h.C C C C ,.Y.Y.Y.Y.T C C C K Y.Y.B.C C C C O.Y.Y.Y.Y._ C C C C ",
"f.f.f.f.4._ O.O._ 2.f.f.f.f.O.O.O.O.O.f.f.f.f.,.X.O.O.O.4.f.f.f.4.o.O.O._ ,.f.f.f.f.O._ O.O.O.f.f.4._ X.O.*.,.f.f.f.f.=.X.O.O.O.",
"C C C C _ Y.Y.Y.Y.O.C C C C B.Y.Y.Y.h.C C C C ,.Y.Y.Y.Y.T C C C Y Y.Y.Y.Y.,.C C C C h.Y.Y.Y.B.C C K Y.Y.Y.Y.4.C C C C f.Y.Y.Y.Y.",
"C C C C _ Y.Y.Y.Y.O.C F C D B.Y.Y.Y.h.C K K C 3.Y.Y.Y.Y.T C K C T Y.Y.Y.Y.,.C K K C h.Y.Y.Y.B.K C T Y.Y.Y.Y.4.C K C C f.Y.Y.Y.Y.",
"C C H C _ Y.Y.Y.Y.O.C K C D B.Y.Y.Y.h.C K K C 0.Y.Y.Y.Y.T C K C T Y.Y.Y.Y.,.C K F C h.Y.Y.Y.B.F C T Y.Y.Y.Y.4.C K K C f.Y.Y.Y.Y.",
"C C C C _ Y.Y.Y.Y.O.C C C C h.Y.Y.Y.h.C C C M O.Y.Y.Y.Y.K M C M K Y.Y.Y.Y.,.M C C C h.Y.Y.Y.b.C M C Y.Y.Y.Y.4.C C C C f.Y.Y.Y.Y.",
"h.h.h.h.4._ _ _ _ 2.Y.Y.Y.Y.f.f.f.w.f.Y.Y.Y.Y.B.w.f.f.f.Y.Y.Y.Y.Y.f.f.f.w.h.Y.Y.Y.Y.f.4.f.e.f.Y.Y.Y.f.f.f.f.f.h.h.f.h.O._ _ _ _ ",
"Y.Y.Y.Y.f.C C C M h.m z c c k h h h k c c c c z h h h h z c c c z h h h h l c c c c k h h h h c c x h h k f n Y.Y.Y.Y._ C C C C ",
"Y.Y.Y.Y.f.C F K C Y.k                                                                                       l Y.B.Y.Y._ C F C C ",
"Y.Y.Y.Y.f.C C C M Y.z   X # > > * * > > > : : > X X X $ : * * > > : $ > > > : > > * + @ @ @ X $ > # @ , #   z Y.B.Y.Y._ C C C C ",
"h.h.h.h.4._ _ _ T B.k   * 9 0 0 9 < 0 0 0 < 9 0 9 $ @ 2 < * : 0 0 0 0 0 0 2 : 1 9 2 < $ $ $ $ 9 w 0 0 r ,   k Y.f.h.h.O.T _ _ _ ",
"C C C C _ Y.Y.Y.Y.g.f   , w < < 2 $ 5 9 9 2 9 9 2 2 < 9 < * < 9 9 9 9 9 9 : # # * , 5 2 , $ 9 a 9 9 9 0 >   g _ C C C f.Y.Y.Y.Y.",
"C C C C _ Y.Y.Y.Y.h.f   > t e 9 9 0 9 9 0 a 9 9 w 9 0 9 9 9 0 9 r a s e 9 9 , # < 9 9 9 9 9 9 s 0 2 > 9 >   g O.C C C f.Y.Y.Y.Y.",
"C C C C _ Y.Y.Y.Y.h.f   > w 2 9 9 , > 2 0 y 9 9 0 9 9 9 9 9 9 9 y w 0 9 9 9 9 9 9 9 9 9 9 9 9 9 9 < $ 2 >   g O.C C C f.Y.Y.Y.Y.",
"C C C C _ Y.Y.Y.Y.g.f   > 0 2 0 < @ $ * 9 9 9 9 9 9 9 9 9 9 2 2 9 9 r r 9 9 9 4 , 9 9 9 9 9 9 0 9 9 2 r ,   g _ C C C f.Y.Y.Y.Y.",
"h.h.h.h.4._ _ _ Y Y.k   , r 9 0 2 # # # 9 9 , , 9 9 9 9 , 9 2 < 9 9 u u 9 9 < % & 9 9 9 > > 9 > 2 9 9 < $   k Y.f.h.h.O.) _ _ _ ",
"Y.Y.Y.Y.f.C C C M Y.l   * < 9 9 0 * @ 2 9 9 * @ 2 0 9 9 2 , 2 0 9 9 9 9 9 9 5 * < 9 9 9 * * 9 > 2 9 9 , +   l Y.B.Y.Y._ C C C C ",
"Y.Y.Y.Y.f.C C S C Y.l   X $ , 9 9 2 0 r 9 9 9 9 9 9 9 9 9 > < 0 9 9 9 9 9 9 9 9 9 9 9 e 9 9 9 0 9 9 9 0 >   l Y.B.Y.Y._ C D C C ",
"Y.Y.Y.Y.f.C C C M Y.l   # = > 0 9 9 0 0 9 9 9 0 9 9 9 r r 9 9 9 9 9 9 9 9 9 9 9 2 , 0 r 9 9 9 9 9 , , w >   l Y.B.Y.Y._ C C C C ",
"h.h.h.B.4.T T T K Y.k   X @ > 9 9 9 r 0 9 9 9 > 2 0 9 t r 9 9 9 9 9 9 9 9 9 9 9 2 , 9 9 9 9 9 9 9 9 9 0 >   k Y.f.h.B.O.T T T T ",
"C C C C _ Y.Y.Y.Y.g.p   @ > 5 9 9 9 y e 9 9 9 2 9 < < 9 9 9 2 $ 2 0 2 $ $ 2 9 9 9 9 9 9 , < 9 9 9 0 < > :   g _ C C C f.Y.Y.Y.Y.",
"C C C C _ Y.Y.Y.Y.h.f   > w 9 9 r 2 + , 9 9 9 0 2 O O < 0 e $ * 9 9 2 @ @ < 9 9 9 9 9 e 0 9 9 u d e $ $ $   g _ C C C f.Y.Y.Y.Y.",
"C C K C _ Y.Y.Y.Y.h.f   > 0 9 9 r w < 9 9 9 9 9 9 : # 2 9 r < 2 9 9 9 2 2 9 a d s w 9 5 > < 9 9 9 9 < w e   g O.C C C f.Y.Y.Y.Y.",
"C C C C _ Y.Y.Y.Y.f.f   > 0 9 9 9 r 0 9 9 9 9 9 9 9 9 9 9 9 0 9 9 9 9 9 9 9 0 < 2 9 5 # ; - 2 9 9 9 9 r ,   g _ C C C f.Y.Y.Y.Y.",
"f.f.f.f.4.X.O.O.T B.j   > 0 9 9 9 r 9 9 9 9 9 9 9 9 9 9 9 2 , 9 9 9 9 9 9 9 9 < 2 0 5 # ; # : 9 9 9 9 0 >   k Y.4.f.f.,._ _ _ *.",
"Y.Y.Y.Y.f.C C C M Y.l   > 0 9 9 9 9 9 9 9 9 9 9 9 9 9 9 9 : # > 9 9 0 9 9 9 9 9 9 , < , : O < 0 9 0 9 9 >   l Y.B.Y.Y._ C C C C ",
"Y.Y.Y.Y.f.C C C C Y.l   : 0 9 9 9 9 9 9 9 0 , 5 9 9 9 9 9 > # , 9 9 t 9 9 9 9 9 < < 9 0 9 5 9 9 9 9 0 0 >   l Y.B.Y.Y._ C C C C ",
"Y.Y.Y.Y.f.C C C M Y.l   @ 0 2 < 0 9 9 9 9 < 2 9 9 9 w 9 9 9 5 9 9 9 9 9 9 9 9 9 2 9 9 2 9 9 9 9 , $ $ 9 ,   l Y.B.Y.Y._ C C C C ",
"Y.Y.Y.Y.f.C C C M Y.l   * 9 9 9 2 > 9 5 : # : 9 9 9 a , < 9 9 5 9 9 9 > * , 0 2 , 9 0 r 9 9 9 e $ @ @ * #   k Y.h.b.B.O.K T T T ",
"Y.Y.Y.Y.f.C C C M Y.l   @ > 9 9 2 , 0 5 # # @ , 9 9 5 * = 9 < > 5 9 : @ # @ 2 9 9 9 t s w 9 9 9 > * * < @   g O.C C C f.Y.Y.Y.Y.",
"Y.Y.Y.Y.f.C C C M Y.l   X $ , 9 9 9 > w e 1 > 9 9 9 9 2 2 0 < , 2 9 > # # : 9 5 9 9 9 9 9 9 9 9 0 4 , w >   g o.C C C f.Y.Y.Y.Y.",
"Y.Y.Y.Y.f.C C C M Y.l   # $ > 0 9 * . 1 s s a 9 9 9 9 9 9 9 9 9 9 9 9 9 2 9 2 # : 9 2 < 9 9 9 9 9 9 9 0 >   g O.C C C f.Y.Y.Y.Y.",
"Y.Y.Y.Y.f.C C C M Y.l   + $ * 9 9 > o # 9 9 9 9 9 9 9 9 9 9 9 9 9 9 9 9 9 < : ; # 2 > $ 5 9 9 9 , 9 9 0 >   g _ C C C f.Y.Y.Y.Y.",
"O.O.O.O.,.4.4.4.,.B.g   * 2 , 5 0 0 < 9 9 9 9 9 9 9 9 y 0 9 9 9 9 9 9 9 0 : O : : 9 2 < 9 9 9 9 < 2 9 9 $   j Y.,.4.4.,.O.O.O.O.",
"C C C B T Y.Y.Y.Y.f.p   > 0 9 9 > < 9 9 9 9 9 9 2 < 9 9 9 9 9 4 9 9 9 9 9 9 > 2 0 9 9 9 9 9 9 9 9 $ $ 9 >   l Y.B.Y.Y._ C C C C ",
"C C C C _ Y.Y.Y.Y.h.f   > w 9 9 < 5 9 9 9 0 0 9 2 < 9 9 9 9 < & 5 9 w e 9 9 0 9 9 9 9 9 w r 2 9 5 $ * 0 >   l Y.B.Y.Y._ C C C C ",
"C C C C _ Y.Y.Y.Y.h.f   > 0 9 9 9 , < 9 9 a d r 9 0 9 9 9 9 > & 8 9 9 w 9 9 9 9 9 9 2 9 9 y y r 9 9 9 w >   l Y.B.Y.Y._ C C C C ",
"K K K C _ Y.B.B.B.h.f   > w 9 9 : # # < 9 9 9 9 9 9 9 9 9 9 9 * : < 9 9 9 9 9 9 9 > O , 9 9 u y 9 9 5 > @   l Y.B.V.Y.*.C K K K ",
"Y.Y.Y.Y.f.C K K C Y.l   > < 9 9 # # @ > 9 9 9 9 9 < = , e 9 9 : # > 0 9 9 9 9 9 9 < * < 9 < < 9 9 9 , $ @   g O.C K C f.Y.Y.Y.Y.",
"Y.Y.Y.Y.f.C C C M Y.l   # : 5 0 < * > 9 9 9 9 9 9 = + > s w 9 , # , 0 2 < 9 * > 9 9 0 9 2 $ $ 2 9 9 > = @   g O.C C C f.Y.Y.Y.Y.",
"Y.Y.Y.Y.f.C C C C Y.l   @ $ , 0 9 0 9 9 9 9 9 9 9 , $ < 9 9 9 9 9 9 2 * $ , 2 2 9 2 < 9 2 $ $ 2 9 e q $ @   g O.C C C f.Y.Y.Y.Y.",
"Y.Y.Y.Y.f.C C C M Y.l   $ = $ 9 9 9 9 = < 9 2 < 0 9 9 9 9 9 9 < 2 0 < $ = 2 0 9 9 , @ , 0 2 2 9 9 0 2 * o   g _ C C C f.Y.Y.Y.Y.",
",.,.,.,.,.,.,.,.O.B.g   @ = @ 2 0 9 9 2 5 9 , $ 2 9 9 9 9 2 < < 5 9 9 9 9 9 , 2 9 5 < 9 9 9 9 9 0 5 @ O .   h B.O.,.,.,.2.,.,.,.",
"C C C C _ Y.Y.Y.Y.g.p   @ $ $ 9 0 9 9 0 9 9 9 < 9 9 9 9 9 9 9 9 9 9 9 9 9 9 > 9 2 5 0 9 9 9 9 > < 9 # X .   l Y.B.Y.Y._ C C C C ",
"C C C C _ Y.Y.Y.Y.h.f   X = $ 2 , , 9 2 9 0 e 0 9 9 9 * > 0 > , 0 9 < > < 9 9 9 2 9 9 9 9 9 2 O * 0 2 # X   l Y.B.Y.Y._ C C C C ",
"C C C C _ Y.Y.Y.Y.h.p   o * : 9 < 2 2 $ , r r 9 9 9 9 5 2 9 2 9 9 9 > + = , 9 9 9 2 , 9 9 9 9 , 2 9 9 w >   l Y.B.Y.Y._ C C C C ",
"C C D C _ Y.Y.Y.Y.h.f   * 9 9 5 9 0 5 2 , , 9 9 r 9 9 2 * $ 2 9 < 5 5 < 4 3 9 e y # O : 0 9 : 2 9 9 5 w ,   l Y.B.Y.Y._ C D C C ",
"B.B.B.Y.f.K K K C Y.k   $ 9 : $ - < r w @ X < 0 r 0 < $ = $ , 0 , 5 0 0 0 0 9 < 2 5 > < 0 0 0 0 9 : $ > >   g ,.K Y K f.Y.B.B.B.",
"Y.Y.Y.Y.f.C C C M Y.l   > 5 @ # @ * w 5 @ @ , 5 < 2 , @ @ $ < 5 5 2 < < < < 2 @ : 5 5 5 2 2 < 2 , @ $ # *   g X.C C C f.Y.Y.Y.Y.",
"Y.Y.Y.Y.f.C C D C Y.l                                                                                       g O.C C C f.Y.Y.Y.Y.",
"Y.Y.Y.Y.f.C C C M B.b 6 i i 6 6 6 6 6 i i i i 7 6 6 6 6 i i i i 7 6 6 6 6 7 i i i i 6 6 6 6 6 6 6 6 i i i 6 v ( C C C f.Y.Y.Y.Y.",
"f.f.f.h.4._ _ _ _ 4.B.Y.Y.Y.4.,.,.,.4.Y.Y.Y.Y.h.,.4.,.,.B.Y.Y.Y.B.,.,.3.,.f.Y.Y.Y.Y.4.,.3.,.,.0.,.4.Y.Y.Y.Y.f._ _ _ _ 4.h.f.f.f.",
"C C C C _ Y.Y.Y.Y.O.C C C C B.Y.Y.Y.h.C C C V ,.Y.Y.Y.Y.K C C C K Y.Y.Y.Y.,.V C C C h.Y.Y.Y.Y.Y.Y.B.C C C C O.Y.Y.Y.Y._ C C C C ",
"C C C C _ Y.Y.Y.Y.,.C K C K B.Y.Y.Y.h.C C K C ,.Y.Y.Y.Y.T C K C T Y.Y.Y.Y.4.C K D C h.Y.Y.Y.Y.Y.Y.B.H C K C O.Y.Y.Y.Y._ C C C C ",
"C C C C _ Y.Y.Y.Y.-.C K K K B.Y.Y.Y.h.C K K C 3.Y.Y.Y.Y.T C K C T Y.Y.Y.Y.0.C K K C h.Y.Y.Y.Y.Y.Y.B.F C K C -.Y.Y.Y.Y._ C C C C ",
"C C C C _ Y.Y.Y.Y.O.C C C C B.Y.Y.Y.h.C C C C ,.Y.Y.Y.Y.T C C C T Y.Y.Y.Y.,.C C C C h.Y.Y.Y.Y.Y.Y.B.C C C C O.Y.Y.Y.Y._ C C C C ",
"f.f.f.f.4.o.O.O._ 2.f.f.f.f.O.O.O.O.O.f.f.f.f.,._ O.O.O.4.f.f.f.w.O.O.O._ ,.f.f.f.f.O.O.O.O.O.O.O.O.f.f.f.f.4._ O.O._ 4.f.f.f.f.",
"Y.Y.Y.Y.f.C C C C 4.Y.Y.Y.Y.K C C C T Y.Y.Y.Y.,.C C C C h.Y.Y.Y.B.C C C C ,.Y.Y.Y.Y.T C C C C C C K Y.Y.Y.Y.4.C C C C f.Y.Y.Y.Y.",
"Y.Y.Y.Y.f.C C K C 4.Y.Y.Y.Y.T C K C T Y.Y.Y.Y.,.C K K C h.Y.Y.Y.b.D F K C ,.Y.Y.Y.Y.( C S C C C C T Y.Y.Y.Y.4.C K C C f.Y.Y.Y.Y.",
"Y.Y.Y.Y.f.C C D C 4.Y.Y.Y.Y.T C K C T Y.Y.Y.Y.,.C K C C B.Y.Y.Y.b.C C K C ,.Y.Y.Y.Y.T C K C C C C Y Y.Y.Y.Y.4.C K C C f.Y.Y.Y.Y.",
"Y.Y.Y.Y.f.C C C C 4.Y.Y.Y.Y.T C K C T Y.Y.Y.Y.,.C K C C B.Y.Y.Y.b.C C K C ,.Y.Y.Y.Y.T C H C C C C T Y.Y.Y.Y.4.C H D C f.Y.Y.Y.Y."
};
