/* XPM */
static const char *player1[] = {
/* columns rows colors chars-per-pixel */
"64 64 239 2 ",
"   c #0C0C0D",
".  c #070507",
"X  c #120D0E",
"o  c #1B0E0A",
"O  c #16100D",
"+  c #0D0C14",
"@  c #0E0E1A",
"#  c #120E14",
"$  c #120F1A",
"%  c #0F1013",
"&  c #0F101B",
"*  c #131314",
"=  c #13131C",
"-  c #1A1819",
";  c #0F100E",
":  c #27150D",
">  c #261B19",
",  c #37251A",
"<  c #25241E",
"1  c #131523",
"2  c #14162A",
"3  c #1A1A2C",
"4  c #191826",
"5  c #1A1D34",
"6  c #1B1E3B",
"7  c #161A34",
"8  c #241C22",
"9  c #2B1E37",
"0  c #1E2136",
"q  c #1D213C",
"w  c #242426",
"e  c #27282E",
"r  c #2B2A2C",
"t  c #27252A",
"y  c #372A25",
"u  c #21243D",
"i  c #272632",
"p  c #352F38",
"a  c #472B18",
"s  c #4C341C",
"d  c #4B3629",
"f  c #623D2D",
"g  c #65371A",
"h  c #704F19",
"j  c #544835",
"k  c #584C34",
"l  c #73482A",
"z  c #785829",
"x  c #745533",
"c  c #6E4B30",
"v  c #1D1F43",
"b  c #1E2343",
"n  c #1F2349",
"m  c #1F2A54",
"M  c #222543",
"N  c #222844",
"B  c #22254A",
"V  c #242A4C",
"C  c #2A274C",
"Z  c #262C53",
"A  c #292D55",
"S  c #2A2E5B",
"D  c #252855",
"F  c #2B325C",
"G  c #293257",
"H  c #313A5C",
"J  c #382A49",
"K  c #2B2E61",
"L  c #2C3362",
"P  c #2E3964",
"I  c #273261",
"U  c #313964",
"Y  c #343B6B",
"T  c #303663",
"R  c #383E70",
"E  c #2D1F42",
"W  c #45394A",
"Q  c #462C52",
"!  c #4D3555",
"~  c #4A3956",
"^  c #533A5D",
"/  c #53345C",
"(  c #5A2E64",
")  c #5B3264",
"_  c #533C62",
"`  c #5B3A64",
"'  c #5D356A",
"]  c #5D396A",
"[  c #553864",
"{  c #4C3061",
"}  c #61356B",
"|  c #62396D",
" . c #603166",
".. c #683D75",
"X. c #354372",
"o. c #45434C",
"O. c #584D48",
"+. c #4C4458",
"@. c #534C59",
"#. c #665B48",
"$. c #72574A",
"%. c #68614A",
"&. c #6B6344",
"*. c #6D6D4F",
"=. c #524262",
"-. c #5A476C",
";. c #5E4773",
":. c #5F546D",
">. c #6D437D",
",. c #654677",
"<. c #68557B",
"1. c #61516A",
"2. c #606164",
"3. c #747179",
"4. c #6C6774",
"5. c #89561B",
"6. c #946C1D",
"7. c #8A5734",
"8. c #8C6629",
"9. c #866634",
"0. c #9A7434",
"q. c #966E25",
"w. c #A47D2A",
"e. c #A5613E",
"r. c #A77F33",
"t. c #B57E19",
"y. c #825D45",
"u. c #9A5D43",
"i. c #83614A",
"p. c #987445",
"a. c #996E53",
"s. c #AA6B45",
"d. c #B86C46",
"f. c #A77A5B",
"g. c #B8754E",
"h. c #B77E62",
"j. c #C37C51",
"k. c #9D831B",
"l. c #BD831A",
"z. c #9B822E",
"x. c #97832D",
"c. c #9B8130",
"v. c #B48829",
"b. c #D8991C",
"n. c #D49C25",
"m. c #C79625",
"M. c #E1AC23",
"N. c #E0A918",
"B. c #AC8853",
"V. c #BF8460",
"C. c #CA8456",
"Z. c #D48758",
"A. c #DD915E",
"S. c #DB976A",
"D. c #DD9D71",
"F. c #D59A78",
"G. c #CA8B64",
"H. c #E09A6C",
"J. c #E39C7B",
"K. c #DBA07A",
"L. c #EBA97B",
"P. c #E6A67B",
"I. c #6C3D83",
"U. c #6C4B84",
"Y. c #744B86",
"T. c #744B8B",
"R. c #754888",
"E. c #6D5387",
"W. c #715589",
"Q. c #7A518D",
"!. c #76588C",
"~. c #7C4E94",
"^. c #774D98",
"/. c #7B5494",
"(. c #7C5A95",
"). c #7C5799",
"_. c #7E708D",
"`. c #7A5EA0",
"'. c #805496",
"]. c #82539C",
"[. c #815D9C",
"{. c #84599B",
"}. c #81499C",
"|. c #84649D",
" X c #817C88",
".X c #8555A3",
"XX c #855BA2",
"oX c #8A5CA5",
"OX c #8C5CAB",
"+X c #875DA8",
"@X c #905EAB",
"#X c #925EB2",
"$X c #8E5EB0",
"%X c #8E62AC",
"&X c #8864A4",
"*X c #9263AE",
"=X c #8F64B3",
"-X c #9364B4",
";X c #956BB4",
":X c #9A6CB7",
">X c #9564BC",
",X c #9A64BC",
"<X c #9B6CBB",
"1X c #966BBC",
"2X c #9879B3",
"3X c #9D6BC2",
"4X c #9B66C1",
"5X c #9D71C3",
"6X c #A36CC5",
"7X c #A46CCB",
"8X c #A86CCE",
"9X c #A267C6",
"0X c #A471CA",
"qX c #AA73CD",
"wX c #A573C8",
"eX c #A96FD3",
"rX c #AA6CD6",
"tX c #AC74D3",
"yX c #AD73DA",
"uX c #AD78D6",
"iX c #B075D5",
"pX c #B27BD6",
"aX c #B275DA",
"sX c #B47CDB",
"dX c #9E5ECA",
"fX c #8D8D8E",
"gX c #9A999D",
"hX c #8C8E91",
"jX c #B2B2B4",
"kX c #A29FA7",
"lX c #E19E82",
"zX c #E8A983",
"xX c #E3BFA3",
"cX c #B581DA",
"vX c #D7D7D8",
"bX c #C8C8CA",
"nX c white",
"mX c #F3F3F3",
"MX c #E7E7E8",
/* pixels */
"nXnXnXnXnXnXnXnXnXnXnXnXnXnXnXnXnXnXnXnXnXnXnXnXnXnXnXnXnXnXnXnXnXnXnXnXnXnXnXnXnXnXnXnXnXnXnXnXnXnXnXnXnXnXnXnXnXnXnXnXnXnXnXnX",
"nXnXnXnXnXnXnXnXnXnXnXnXnXnXnXnXnXnXnXnXnXnXnXnXnXnXnXnXnXnXnXnXnXnXnXnXnXnXnXnXnXnXnXnXnXnXnXnXnXnXnXnXnXnXnXnXnXnXnXnXnXnXnXnX",
"nXnXnXnXnXnXnXnXnXnXnXnXnXnXnXnXnXnX+.jXnXnXnXnXnXnXnXnXnXnXnXnXnXnXnXnXnXnXnXnXnXnXnXnXnXnXnXnXnXnXnXnXnXnXnXnXnXnXnXnXnXnXnXnX",
"nXnXnXnXnXnXnXnXnXnXnXnXnXnXnXnXnXnX%XE.nXnXnXnXnXnXnX-.5XnXnXnXnXnXnXnXnXnXnXnXnXnXnXnXnXnXnXnXnXnXnXnXnXnXnXnXnXnXnXnXnXnXnXnX",
"nXnXnXnXnXnXnXnXnXnXnXnXnXnXnXkX-.nX=X1X).nXnXnXnXnX,.%X0XnX<.nXnXnX* %   ; nXnXnXnXnXnXjX% +     fXnXnXnXnXnXnXnXnXnXnXnXnXnXnX",
"nXnXnXnXnXnXnXnXnXnXnXnXnXnXnX:.qX3.1XuXtX3X>X>X>X1X0XeX=XbX2XvXnXhXB B B M *       * * 0 A Z A V 5 bXnXnXnXnXnXnXnXnXnXnXnXnXnX",
"nXnXnXnXnXnXnXnXnXnXnXnXnXnXnX=.;XuX(.tXyXyX-XOXyXyXeX>X-.iX@.w w 1 S S S S q 5 5 6 q u B S S S F 5 * nXnXnXnXnXnXnXnXnXnXnXnXnX",
"nXnXnXnXnXnXnXnXnXnXnXnXnXnXnXnX3.uXaXtXtXXX;.-.rX^.~ /.yX!.nX2.2 S S S S K K K S S K L A u i i i 4 - nXnXnXnXnXnXnXnXnXnXnXnXnX",
"nXnXnXnXnXnXnXnXnXnXnXnXnXnXnXnXnX<.0XoXOXQ.! / -.aX_ .X-X4.nXfX2 D K K S S K K S D Z L Z y m.v.m.h - nXnXnXnXnXnXnXnXnXnXnXnXnX",
"nXnXnXnXnXnXnXnXnXnXnXnXnXnXnXnXnXnX:X/.oX{._ _ ,.iX=.oXE.nXnXgX1 B K K K K S S Z V V S V y M.n.M.5.- nXnXnXnXnXnXnXnXnXnXnXnXnX",
"nXnXnXnXnXnXnXnXnXnXnXnXnXnXnXnXnXnX:XpXiXpXpXuXpXsXuXuXW.nXnX_.@ 1 6 n v B M b M n n b u y N.l.m.5.- nXnXnXnXnXnXnXnXnXnXnXnXnX",
"nXnXnXnXnXnXnXnXnXnXnXnXnXnXnXnXnXnX:XpXwXQ.Q.Q.Q.Q.T.6XW.nXnX@.+ 3 z 9.W O.w.r.r.v.v.w.w.q.N.b.b.h - nXnXnXnXnXnXnXnXnXnXnXnXnX",
"nXnXnXnXnXnXnXnXnXnXnXnXnXnXnXnXnXnX:XqX@X'.'.Y.| '.).0XW.nXnX@.+ 2 z z W O.w.0.0.0.0.9.9.z z z x s * nXnXnXnXnXnXnXnXnXnXnXnXnX",
"nXnXnXnXnXnXnXnXnXnXnXnXnXnXnXnXnXnX<X:XQ.qXwX{.] :XqXuXW.nXnXw + = 1 1 # # i A D S S S D D D D B n 6 fXnXnXnXnXnXnXnXnXnXnXnXnX",
"nXnXnXnXnXnXnXnXnXnXnXnXnXnXnXnXnXnX:XpX6X-.] ] ] ] ] XXW.nXnX* . . . . y.s.8 C S S S S D D D D D B n 2.nXbXnXnXnXnXnXnXnXnXnXnX",
"nXnXnXnXnXnXnXnXnXnXnXnXnXnXnXMXmXnX,XsXwXY.Y.R.R.Q.T.#X/.vXnX* l e.* + f.S.y.- + + * 8 - + & $ = = = 1 2.2.nXnXnXnXnXnXnXnXnXnX",
"nXnXnXnXnXnXnXnXnXnXnXnXnXnXXX7X7X7XeXpXsXaXeX8X8XiXaXyX8X:XnX= u.Z.> + f.D.K.d - . l s.f   + y >   * * * nXnXnXnXnXnXnXnXnXnXnX",
"nXnXnXnXnXnXnXnXnXnXnXnXnXMX3XaXtX` ^ oXiXaX>.' ) 9XaXyXT.4XtX4 u.Z.Z.a f.zXxXxX%.> F.S.S.a.> F.$.- nXnXnXnXnXnXnXnXnXnXnXnXnXnX",
"nXnXnXnXnXnXnXnXnXnXnXnX-.tX3XuXtX` ` ` ,.'.,X7X9X8X` ] ] ] %X8 u.Z.Z.x G.P.L.zXf.i.D.P.P.G.$.K.y.w nXnXnXnXnXnXnXnXnXnXnXnXnXnX",
"nXnXnXnXnXnXnXnXnXnXnX=.&XtX,./.).oX,.] ] ] R.OXiXT.) ] ] ] I.i 8 d C.C.S.L.L.L.L.L.P.P.zXzXzXzXy.- nXnXnXnXnXnXnXnXnXnXnXnXnXnX",
"nXnXnXnXnXnXnXnXnXnXnXE.yX,.| | >.aX>.] ) [ ) Q.tX] ] ] ' ' ,X8XU.> j.C.S.L.L.L.L.P.j.g.g.G.zXzXi.- nXnXnXnXnXnXnXnXnXnXnXnXnXnX",
"nXnXnXnXnXnXnXnXnXnXnXW.eX..| | >.aX-X.X.X.X.X#XtX.XoX%XoXoX9X,XT.8 f s.S.L.L.L.L.L.D.D.D.P.zXP.i.* nXnXnXnXnXnXnXnXnXnXnXnXnXnX",
"nXnXnXnXnXnXnXnXnXnXnXU.7X~.| ..Y.sXqX7X9X4X,X,XuX,X<X6X6XuX<X].{.J X s x s.S.H.S.S.H.H.S.D.S.a.d 3.nXnXnXnXnXnXnXnXnXnXnXnXnXnX",
"nXnXnXnXnXnXnXnXnXnXnX=.yX-X/.*XsXsXY.....) ) >.tX) ' } R.,X6X.X{ E = + . s s.d.g.s.s.s.e.s.e., hXnXnXnXnXnXnXnXnXnXnXnXnXnXnXnX",
"nXnXnXnXnXnXnXnXnXnXnX-.yX0XwX6XqXsXY.} } ' ` >.uX)  .} >.0X4 $ $ $ B 5 1 X o a a ; X X X * + + o.nXnXnXnXnXnXnXnXnXnXnXnXnXnXnX",
"nXnXnXnXnXnXnXnXnXnXnX-.yX,.] ' {.cXY.} } } >.~.eX....) ) -.M u M M 7 N V 0 5 y k p.p.p.j r k k < % o.nXnXnXnXnXnXnXnXnXnXnXnXnX",
"nXnXnXnXnXnXnXnXnXnXnX-.yX] / ` '.sXQ...| } 9XuXuXyXeX) 9 = Y Y U U + b A F F 5 d B.B.B.#.p *.*.r   = nXnXnXnXnXnXnXnXnXnXnXnXnX",
"nXnXnXnXnXnXnXnXnXnXnX-.eX` / Q.pX=.6XoX..>.| R.tX| ].).  R Y Y Y U 6 @ n S F 5 5 F H P O.k X.X.5 2 6 * nXnXnXnXnXnXnXnXnXnXnXnX",
"nXnXnXnXnXnXnXnXnXnXnX;.eX[ ) oXyX=.,XwX{...} R.tX} ].).+ U U U P F 5 @ B A V 5 5 P L P &.x.G q 2 2 6 * nXnXnXnXnXnXnXnXnXnXnXnX",
"nXnXnXnXnXnXnXnXnXnX).7XeX] ,.9X.XMX4.;X*X| ` R.tX} R.;.  T F F F Z 5 @ B G 5 = 5 L L P %.x.G B 2 1 5 * nXnXnXnXnXnXnXnXnXnXnXnX",
"nXnXnXnXnXnXnXnXnXnX[.uXeXqXqXoXnXnXnX%X*X` } R.tX( ( 4 + B F F Z V 6 & V S Z 5 2 B Z U %.z.H L 2 % 1 p nXnXnXnXnXnXnXnXnXnXnXnX",
"nXnXnXnXnXnXnXnXnXnX[.<X^ #XtX&XnXnXnXOX%X` } R.uX) J C F T V B q 5 = q Z S S 5 & 2 n L #.z.H Z 2 % = 2.nXnXnXnXnXnXnXnXnXnXnXnX",
"nXnXnXnXnXnXnXnXnXnX[.3X^ ~ ,X[.nXnXE.9X6X%X%X<XpX.X4 M T T B q 6 5 1 V S F B 3 3 V A L #.z.H q = + 0 vXnXnXnXnXnXnXnXnXnXnXnXnX",
"nXnXnXnXnXnXnXnXnXnX[.3X^ ^ qX&XnXnXOX4XOX*X%X-X*X%X4 u F T V B 5 2 5 Z S F N 2 5 L L L #.c.F S 1 = n u gXnXnXnXnXnXnXnXnXnXnXnX",
"nXnXnXnXnXnXnXnXnXnX[.3X^ _ cX&XnXnXOX.X) ) ) ) ) ) # q F L G V 1 = q Z F I L q 5 Z Z L #.z.F I 2 @ n q   nXnXnXnXnXnXnXnXnXnXnX",
"nXnXnXnXnXnXnXnXnXnX[.<X^ =.cX|.nXnX=X.X) ) ) ) ) [ # 6 F F Z B 1 $ b B F I L q 3 6 u L #.z.G S 1 & n q   nXnXnXnXnXnXnXnXnXnXnX",
"nXnXnXnXnXnXnXnXnXnX[.uXuXtXcX|.vXXX).>.) ) ) ) ) ) $ 6 F F Z B 1 @ b V F I F q 5 G F U %.c.G G 1 + b q   nXnXnXnXnXnXnXnXnXnXnX",
"nXnXnXnXnXnXnXnXnXnX[.0X/./.uX|.o.tXT.` ) ) ) ) ) ) $ 6 F F A B 1 @ B F F F Z 5 3 Y X.P %.z.G Z 1 + b 6   nXnXnXnXnXnXnXnXnXnXnX",
"nXnXnXnXnXnXnXnXnXnX[.4X^ [ uX[.o.tXT.) ) ) ) ( ( ) $ 6 F F I B 1 @ B S F S Z 1 2 U Y P %.c.G D & + v 6   nXnXnXnXnXnXnXnXnXnXnX",
"nXnXnXnXnXnXnXnXnXnX).4X^ ^ tX[.o.tX/.) ) ) ( ~.-XJ # 5 S S I 0 @ + B Z S S V 5 5 0 A U %.z.Z m 3 7 6 7   nXnXnXnXnXnXnXnXnXnXnX",
"nXnXnXnXnXnXnXnXnXnX-.>X%X-XaX{.o.qX].) ) ) >.-XsXQ + 3 D S S 6 #   $ 6 q q b n 6 j B.B.p.j 6 6 1 2 6 2 . nXnXnXnXnXnXnXnXnXnXnX",
"nXnXnXnXnXnXnXnXnXnXnX=.0XsX[.-.~ 7X>.' ) ) OXuXyXQ # s k.k.k.h = = # 5.5.y k 8.z c n.n.v.x z 8.a > 7.7.O nXnXnXnXnXnXnXnXnXnXnX",
"nXnXnXnXnXnXnXnXnXnXnXnXE.[.:.~ <.9X..' ) ) @XuXyXQ # $.lXJ.lXh.f a   g h , d l k z t.l.l.8.l z , y C.C.: nXnXnXnXnXnXnXnXnXnXnX",
"nXnXnXnXnXnXnXnXnXnXnXnXnXnXnX;.yX,X..} ) ( OXyXyXQ $ $.zXzXzXJ.C.7.X - = 4 4 4 3 h 8.6.8.c 3 2 + y F.F.s nXnXnXnXnXnXnXnXnXnXnX",
"nXnXnXnXnXnXnXnXnXnXnXnXnXnXnX;.yX>X>.} } R.-X>XE.9Xi c A.A.S.J.x : # v D Z V V N N N V V V Z A 3 y S.K.l d p nXnXnXnXnXnXnXnXnX",
"nXnXnXnXnXnXnXnXnXnXnXnXnXnXnX,.yX>X~.>.Y.qX:XT.~ 8Xp c C.C.Z.G.l : 6 V S S F I I I F V Z Z F F 5 , d.d., * gXnXnXnXnXnXnXnXnXnX",
"nXnXnXnXnXnXnXnXnXnXnXnXnXnXnX;.yXyXrXyXsXpX!.nX XqX,X>.o o : o o $ Z Z S L L L L L L q q n F F 6 > $.a y nXnXnXnXnXnXnXnXnXnXnX",
"nXnXnXnXnXnXnXnXnXnXnXnXnXnXnX;.yXrXU.` /.pX!.nXgXtXqX~.Q Q Q.&X_ + D A F I I I Z N B b B F F L 0 * nXvXnXnXnXnXnXnXnXnXnXnXnXnX",
"nXnXnXnXnXnXnXnXnXnXnXnXnXnXnX;.8X,.[ ^ '.(.gXnXnX-.eX~.' ' ].pXE.@ A S L L L I b   & M B B F L 0 w nXnXnXnXnXnXnXnXnXnXnXnXnXnX",
"nXnXnXnXnXnXnXnXnXnXnXnXnXnX,.XXdX/ ! / /.E.nXnXnXnXeX~.' ' ].pXE.@ A A L L L L b   % M M V L L 0 w nXnXnXnXnXnXnXnXnXnXnXnXnXnX",
"nXnXnXnXnXnXnXnXnXnXnXnXnXnX(.-XW ! ! W.wXE.nXnXnXnX7X~.' ' .XpXE.+ A S L L L L M   * B B V F L 0 * nXnXnXnXnXnXnXnXnXnXnXnXnXnX",
"nXnXnXnXnXnXnXnXnXnXnXnXnXnX(.-X! ! ! ).tXU.nXnXnXnXeX~.' ' oX[ #   Z S L L L L N   * M M V F L 0 w nXnXnXnXnXnXnXnXnXnXnXnXnXnX",
"nXnXnXnXnXnXnXnXnXnXnXnXnXnX|.;X! ! ! ).yX,.nXnXnXnXeX/.' ' OX^ + 5 Z S L L L M 3   * B B V F F 0 * nXnXnXnXnXnXnXnXnXnXnXnXnXnX",
"nXnXnXnXnXnXnXnXnXnXnXnXnXnX&X;X~ ~ ,..X).=.nXnXnXnXeX0X].} @X[ 1 S S F I F F * bX- * A S S F q bXnXnXnXnXnXnXnXnXnXnXnXnXnXnXnX",
"nXnXnXnXnXnXnXnXnXnXnXnXnXnX&X;XW W *X&XnXnXnXnXnXnX!.<X%X] @X[ 1 S S F F F Z   nXvX* S S S S = jXnXnXnXnXnXnXnXnXnXnXnXnXnXnXnX",
"nXnXnXnXnXnXnXnXnXnXnXnXnXnX&X;XW W =X&XnXnXnXnXnXnXnX.XOX' @X_ 1 S S S S n +   nXnXw S S S F 1 jXnXnXnXnXnXnXnXnXnXnXnXnXnXnXnX",
"nXnXnXnXnXnXnXnXnXnXnXnXnXnX&X;XW W %XOXnXnXnXnXnXnXnX.X+X' OX[ 1 A Z Z Z b     nXnXw F F F S 1 fXnXnXnXnXnXnXnXnXnXnXnXnXnXnXnX",
"nXnXnXnXnXnXnXnXnXnXnXnXnXnX&X7X/.!.4X+XnXnXnXnXnXnXnX.X7X-X6X{ = 3 4 4 = =   fXnXvX* e e e e * * jXnXnXnXnXnXnXnXnXnXnXnXnXnXnX",
"nXnXnXnXnXnXnXnXnXnXnXnXnX;X%X.X].).4X+XnXnXnXnXnXnXnXXX>X}.U.= 8 w w - *   X nXnXvX* w e r t w - 3.nXnXnXnXnXnXnXnXnXnXnXnXnXnX",
"nXnXnXnXnXnXnXnXnXnXnXnXnX5X,.^ ~ ~ +X+XnXnXnXnXnXnXnXXX$XI.{ = r r r - *     nXnXjX* w e r e r t -   nXnXnXnXnXnXnXnXnXnXnXnXnX",
"nXnXnXnXnXnXnXnXnXnXnXnXnXwXsXsXyXyXuX&XnXnXnXnXnXnXnXXXtXtXE.  * * * X       nXnXjX      ;           nXnXnXnXnXnXnXnXnXnXnXnXnX",
"nXnXnXnXnXnXnXnXnXnXnXnXnX+.+.+.:.4.:.jXnXnXnXnXnXnXnXnXnXnXnXnXnXnXnXnXnXnXnXnXnXnXnXnXnXnXnXnXnXnXnXnXnXnXnXnXnXnXnXnXnXnXnXnX",
"nXnXnXnXnXnXnXnXnXnXnXnXnXnXnXnXnXnXnXnXnXnXnXnXnXnXnXnXnXnXnXnXnXnXnXnXnXnXnXnXnXnXnXnXnXnXnXnXnXnXnXnXnXnXnXnXnXnXnXnXnXnXnXnX",
"nXnXnXnXnXnXnXnXnXnXnXnXnXnXnXnXnXnXnXnXnXnXnXnXnXnXnXnXnXnXnXnXnXnXnXnXnXnXnXnXnXnXnXnXnXnXnXnXnXnXnXnXnXnXnXnXnXnXnXnXnXnXnXnX"
};
