/* XPM */
static const char *wall[] = {
/* columns rows colors chars-per-pixel */
"70 64 155 2 ",
"   c #020202",
".  c #080707",
"X  c #070807",
"o  c #090807",
"O  c #080708",
"+  c #0D0B0B",
"@  c #100E0D",
"#  c #12110F",
"$  c #151311",
"%  c #181614",
"&  c #1C1917",
"*  c #1F1C19",
"=  c #201D1A",
"-  c #26221F",
";  c #28231F",
":  c #272320",
">  c #2A2521",
",  c #2F2A26",
"<  c #2F2C29",
"1  c #322B26",
"2  c #332E2A",
"3  c #36322D",
"4  c #3B342E",
"5  c #3D3631",
"6  c #3F3832",
"7  c #443C34",
"8  c #483E36",
"9  c #473F39",
"0  c #483F38",
"q  c #474037",
"w  c #47413C",
"e  c #4B433C",
"r  c #4B4540",
"t  c #504741",
"y  c #534B44",
"u  c #564E49",
"i  c #575049",
"p  c #5B534C",
"a  c #5F5750",
"s  c #5F5850",
"d  c #60584F",
"f  c #605750",
"g  c #645D55",
"h  c #685F56",
"j  c #665F58",
"k  c #685F58",
"l  c #676057",
"z  c #686057",
"x  c #676059",
"c  c #6B635B",
"v  c #70675E",
"b  c #71685F",
"n  c #756C63",
"m  c #786E65",
"M  c #7A7067",
"N  c #7D736A",
"B  c #767676",
"V  c #7B7B7A",
"C  c #82776D",
"Z  c #80776E",
"A  c #80766C",
"S  c #84776E",
"D  c #80766C",
"F  c #82786D",
"G  c #82786E",
"H  c #83796F",
"J  c #817670",
"K  c #817870",
"L  c #847A70",
"P  c #867A70",
"I  c #867B70",
"U  c #867A71",
"Y  c #867B71",
"T  c #877B71",
"R  c #877C72",
"E  c #877C73",
"W  c #857B71",
"Q  c #887C71",
"!  c #887C72",
"~  c #887D72",
"^  c #897D72",
"/  c #897D73",
"(  c #887D73",
")  c #897E73",
"_  c #8A7E73",
"`  c #897D74",
"'  c #887D74",
"]  c #8A7E74",
"[  c #8A7F76",
"{  c #8C7F74",
"}  c #897E74",
"|  c #8C8075",
" . c #8C8175",
".. c #8C8176",
"X. c #8D8177",
"o. c #8C8177",
"O. c #8E8177",
"+. c #8C8277",
"@. c #8D8277",
"#. c #8F8276",
"$. c #8D8176",
"%. c #8D8278",
"&. c #8C8279",
"*. c #8F8378",
"=. c #8E8279",
"-. c #8E837A",
";. c #8F837A",
":. c #8F847A",
">. c #8D837C",
",. c #8E8278",
"<. c #908277",
"1. c #918377",
"2. c #908278",
"3. c #908378",
"4. c #918379",
"5. c #928379",
"6. c #918478",
"7. c #908479",
"8. c #918479",
"9. c #928479",
"0. c #90847A",
"q. c #91847A",
"w. c #91857A",
"e. c #90857B",
"r. c #91857B",
"t. c #92847A",
"y. c #92857A",
"u. c #93857A",
"i. c #92857B",
"p. c #93857B",
"a. c #91867A",
"s. c #91877B",
"d. c #92867B",
"f. c #93867B",
"g. c #92867C",
"h. c #93877C",
"j. c #93867D",
"k. c #92857A",
"l. c #95887D",
"z. c #95887E",
"x. c #95897F",
"c. c #96897F",
"v. c #95887D",
"b. c #858586",
"n. c #8A8B89",
"m. c #AAAAA9",
"M. c #ABAAAB",
"N. c #C2C1C1",
"B. c #CACACA",
"V. c #CDCDCD",
"C. c #CECECE",
"Z. c #D2D2D2",
"A. c #E6E6E7",
"S. c #E8E7E8",
"D. c #FEFFFF",
/* pixels */
"D.B.X                                                                                                                                   n.D.",
"C.m.: * * * = = * * * * * * * * * * * * * * * * * * * * & % @ +           X * & & * = * * * * * * * * * * * * * * * * * * * & % % % % % V C.",
"+ - >.j.u.u.u.u.u.u.u.u.u.u.u.u.u.u.u.u.u.u.u.u.u.u.u.u.K g r 6 +         % ;.......2.u.2.2.<.<.u.u.u.u.u.2.u.u.u.u.u.u.u.u.S g g g g j 3 O ",
"X & ;.c.c.u.R ! ! ` ` ! ! ! ! ! ! ! ! ! ! ! ! ! ! ! ! ` M g t 7 & # X X * 2 u.;.` W W W ! ! ! ! R R ! ! ! ! ! ! ! ! ! ! ! ` N g g g z j <   ",
"X & ..l.c.u.g z z z z z z z z z z x z z x g j j z z z j g g t 7 6 3 + # n W ;...n z g g h z z z z l z k z z z z z z z z z z z g g g g g <   ",
"X & ..u.j.;.g g g g g g g g g g g g g g g g g g g g g g g g t 7 7 3 + $ N u...` c g g g g g g g g g g g g g g g g g g g g g g g g g g g ,   ",
"X & ....z g g g g g g g g g g g g g g g g g g g g g g g g g t 7 7 3 + $ C u.g g g g g g g g g g g g g g g g g g g g g g g g g g g g t 7 =   ",
"X & ....z g g g g g g g g g g g g g g g g g g g g g g g g g y 7 7 3 + $ C u.g g g g g g g g g c G C C z g g g g g g W G D z g g g g t 7 &   ",
"X & ;.;.z g g g g g g g g g g g g g g g g g g g g g g g g g y 7 7 4 + $ D u.g g g g g g g g g v W W R z g g g g g g ..{ ! c g g g g t 7 &   ",
"X & ;.;.z g g g g g g g g g g g g g g g g g g g g g g g g i e 7 7 4 + # N j.g g g g g g g g g g z z z g g g g g g g z z z g g g g i e 7 =   ",
"X & ;.;.z g g g g g g g g g g g g g g g g g g g g g g g i 8 8 7 7 4 + # N u.g g g g g g g g g g g g g g g g g g g g g g g g g g y 8 8 8 =   ",
"X & ;.;.z g g g g g g p p p g g g g g g g g g g g g g p t 7 7 7 7 4 + $ D u.g g z c c z g g g g g g g g g g g g g g g g g g g g t 7 7 7 =   ",
"X & ;.;.z g g g g g y 8 8 8 i g g g g g g g g g g g i 7 7 7 7 7 7 4 + $ D u.g g D ..;.M g g g g g g g g g g g g g g g g g q 7 7 8 8 7 7 =   ",
"X & ..;.z g g g g g i e e e p g g g g g g g g p i i t 7 7 7 7 7 7 4 + $ C u.g g M W W n g g g g g g g g g g g g g g g g g t e q q 8 7 7 &   ",
"O & ..;.z g g g g g g g g g g g g g g g g g g q 7 7 7 7 7 7 7 7 7 4 @ # D u.g g g g g g g g g g g g g g g g g g g g g g g g g g y 8 7 7 =   ",
"X & ..;.z g g g g g g g g g g g g g s i i i i q 7 7 7 7 7 7 7 8 7 4 + # N u.g g g g g g g g g g g g g g g g g g g g g g p i i i e 7 7 7 =   ",
"X & ;.;.z g g g g g g g g g g g g g i 8 8 8 8 7 7 7 7 7 7 7 q r 8 4 + # N u.g g g g g g g g g g g g g g g g g g g g g i 8 8 8 8 q r q 7 =   ",
"X & ;.| z g g g g g g g g g g g g g i 8 7 7 7 7 7 7 7 7 7 7 q t 8 4 + # N u.g g g g g g g g g g g g g g g g g g g g g i 7 8 7 7 e u e 7 =   ",
"O % c v j g g g g g g g g g g g g g i 8 7 7 7 7 7 8 7 7 7 7 8 8 8 4 @ # M ;.g g g g g g g g g g g g g g s e e e e e e q 7 7 7 7 e u e 7 =   ",
"O $ g g g g g g g g g g g g g g g g i 7 7 7 7 7 7 8 8 8 8 7 7 7 7 4 @ @ m ` g g g g g g g g g g g g g g p 8 8 8 8 8 8 8 7 7 7 7 e u e 7 &   ",
"O + e e e e g g g g g g g g g g i e q 7 7 7 7 7 7 r t t e 7 7 7 7 4 @ O 9 t q e g g g g g g g g g g g g f 8 8 8 7 8 8 8 7 7 8 e e q 8 8 =   ",
"X @ 7 7 7 8 g g g g g g g g g g y 7 7 7 7 7 7 7 7 t y y e 7 7 7 7 4 + o 3 7 7 q a g g g g g g g g g g g p 8 8 8 7 8 8 8 7 7 0 y e 7 7 8 =   ",
"X o & = 6 8 t t t t t t t t t t q 7 7 7 7 7 7 7 7 q q q 9 7 7 7 - & o X % = 7 8 e t t t t t t t t t t t e 8 8 7 7 7 7 7 7 8 8 q 8 7 2 = @   ",
"O     O 6 7 7 7 7 8 8 8 7 7 7 7 7 7 7 7 7 7 7 7 7 7 7 7 7 7 7 7 +         o 7 7 7 7 7 7 8 7 7 7 7 7 7 7 7 7 8 7 7 7 7 7 7 7 7 7 7 7 &       ",
"X     X % % % % % % % % % % % % % % % % % % % % % % % % % % % % X           % % % % % % % % % % % % % % % % % % % % % % % % % % % % O       ",
"X                                                                                                                                           ",
"X % c c c c c c c c c c g 1 &           5 n c c c v v v v v c c v v v c v v c v v v v v c v b 7 2 +           i c c n b v c c v n n v b 3   ",
"X & u.l.j.u.u.u.u.u.u.u.m 7 >           r u.u.u.u.u.u.j.j.u.u.u.u.u.u.u.u.u.u.u.u.u.u.u.u.u.u.y 8 $           n 2.u.j.u.u.u.u.u.u.l.u.u.9   ",
"X & ;.j.n v c c c v v c g 6 6 6 -   2 J ! 2.C v c c c c c c c c c c c c c c c c c c z c c c z e 8 7 6 + . g W ..u.n c c c v c c c c c c 2   ",
"X & ;.;.c j g g g g g g p 7 7 7 -   5 l.u...M g g g g g g g g g g g g g g g g g g g g g g g g e 8 8 7 + X j c.j.u.c g g g g g g g g g g 2   ",
"X % n n x x c n c j g g p 8 8 7 -   3 c.W n z g g g g g g g g g g g g a g g g g g g g g g g g p i e 7 + X z c.N n z g g g p p g g g i r -   ",
"X $ g g j z u.u.;.z g g p 8 8 7 -   3 c.N g g g g g g g g g g g g g y q e g g g g g g g g g g g g e 7 + X z c.n j g g g g e q g g g t 7 =   ",
"X $ g x g x W G C z g g p 7 7 7 -   3 c.N g g g g g g g g g g g g g i t y g g g g g g g g p y y t q 8 + X z l.n g g g g g t e g g g y 7 &   ",
"X $ g x j j z z x g g g p 7 7 7 -   3 u.N g g g g g g g z M n g g g g g g g g g g g g g g y 8 8 8 8 8 + X z c.v g g g g g g a g g g t 7 *   ",
"X $ g x x j g g g g g g i 7 7 7 :   5 h.N g g g g g g g c ` R g g g g g g g g g g g g g g y 8 8 8 8 8 + X z c.c g g g g g g g g g g t 7 =   ",
"X $ g x x x j j g g g g i 8 7 7 :   5 h.N g g g g g g g h n n g g g g g g g g g g g s g s y 8 8 8 8 8 + X j c.n g g g g g g g g p p e 7 =   ",
"X $ g x x j j j g g a q 8 8 8 7 -   3 l.N g g g g g g g g g g g g g g g g g g g e 8 8 8 7 7 7 8 8 8 8 + X g c.n g g g g g g p 8 8 8 8 7 =   ",
"X $ g j j j x j g p u 9 8 8 8 7 -   2 ..n g g g g g g g g g g g g g g g g g g g e 8 8 8 q q q 8 8 8 8 + X g ;.n g g g g g g i 7 8 8 7 7 =   ",
"X $ g g g g g g g q 8 8 8 8 7 7 -   > n c g g g g g g g g g g g g g g g g g g g e 8 8 0 p p i q 8 8 8 + . i n z g g g g g g i 7 8 8 8 7 *   ",
"X $ p p p i i i i q 8 8 8 8 7 8 -   : g p i a g g g g g g g g g g g g g p p p i q 8 8 9 y y y q 7 7 8 @ X e g p i i i p p i y 8 8 8 8 7 &   ",
"O + 7 8 8 8 8 8 8 8 8 7 7 7 7 8 -   & 8 8 8 y g g g g g g g g g g g g g q 8 8 8 8 7 7 7 8 8 8 7 7 7 7 @   , 7 7 7 8 8 8 8 8 8 8 8 7 7 7 =   ",
"O + 7 8 8 8 8 8 7 7 7 8 8 8 3 : %   + > 3 7 e u y y y y y y y y y y y y 8 7 8 8 8 7 7 7 7 8 7 8 8 1 > O   & - 6 7 7 8 8 7 7 7 8 8 8 2 - @   ",
"X + 7 8 8 8 8 7 7 7 8 8 8 7 >           - 7 7 7 7 7 7 8 8 7 7 7 8 8 7 8 8 8 7 7 7 8 8 7 7 7 7 8 8 #           2 7 7 7 7 7 7 7 7 7 7 =       ",
"X . : : - - - : - - - - - - %           $ - - - - - - ; - - - > > - - - > > - - - - - - - - - - - +           * - - - - - - - - - - $       ",
"X                                                                                                                                           ",
".     O w r w w e e e w w w w w e e e e w w w e r r e w w e 3 = X         O r r r e w w r r r r r r r r r r r r r e r r r r r e 3 = #       ",
"O     $ R u.u.u.u.u.u.u.2.u.u.u.u.u.u.u.u.u.u.u.u.u.u.2.2.2.h 7 +         $ j.u.j.u.u.u.u.u.u.u.u.u.u.u.u.u.u.u.u.u.u.u.u.u.u.u.c 7 *       ",
"X % j c ;.:.n n n n n n n n n n n n n n n n n n n n m m n n i 7 1 > + + u z u.u.N m n n n m n n n n n n n n n n n n n n n n m n d 7 2 > $   ",
"X & ;.c.j.;.g g g g g g g g g g g g g g g g g g g g g g g g t 7 7 4 @ $ D u.u...v g g g g g g g g g g g g g g g g g g g g g g j y 8 7 7 =   ",
"X % n M M n g g g g g g g i p p g g g g g g g g g g g g g g y 7 7 4 + $ C j.m n x g g g g g g g g g g g g g g g g g g g g g j g y 8 8 7 *   ",
"O $ g j g g g g g g g g p 8 0 e g g g g g g g g g g g g g g y 8 7 4 + $ C j.g g g g g g g g g g g g g g g g g g g g g g g g x g y 8 7 7 *   ",
"O $ g g g g g g g g g g a r t y g g g g g g g g g g g g g g y 8 7 4 + $ C j.g g g g g g g g g g g g g g g g g g g g g g g g g g y 7 7 7 =   ",
"O $ g g g g y y y g g g g g g g g g g g g g g g g g g g i q 8 7 7 4 + $ C u.g g g g p e y g g g g g g g g g g g g g g g g g a q 8 7 7 7 =   ",
"X $ g g g g y y y g g g g g g g g g g g g g g g g g g g y 7 7 7 7 4 @ $ C u.g g g g i 9 t g g g g g g g g g g g g g g g g g p 8 7 7 7 8 =   ",
"X $ g g g g g g g g g g g g g g g g g g g g g t e e e e q 7 7 7 7 4 + $ C u.g g g g g p g g g g g g g g g g g g g g y t e e q 8 7 7 8 8 =   ",
"X $ g j g g g g g g g g g g g g g g g g g g g q 8 8 8 8 8 8 8 8 7 4 + $ C j.g g g g g g g g g g g g g g g g g g g g e 8 8 8 8 8 8 8 8 8 =   ",
"X $ g g g g g g g g g g g g g g g g g g g g g e 8 7 8 7 7 7 7 8 7 4 + $ C j.g g g g g g g g g g g g g g g g g e e q 8 8 8 8 8 7 7 7 7 7 *   ",
"O $ g g g g g g g g g g g g g g g g g g g g g e 8 7 8 7 8 7 7 7 7 4 + $ N u.g g g g g g g g g g g g g g g g g 9 8 8 8 8 7 7 7 7 7 7 7 7 &   ",
"O + 8 e g g g g g g p e q q q 8 q 8 8 8 8 8 9 8 7 7 7 7 8 7 7 7 7 4 + O 7 e q r g g g g g g g g g g g e q q q 8 8 8 8 8 8 t e 7 7 7 8 7 *   ",
"X + 7 q g g g g g g p q 8 8 8 8 8 8 8 8 8 8 8 8 7 7 7 8 8 7 7 7 7 4 @ X 2 7 8 q f g g g g g g g g g g q 7 8 8 8 8 8 8 8 8 y t 7 7 7 8 8 *   ",
"O + 8 0 e e q e e e e 8 8 8 8 8 7 7 8 8 8 8 8 8 7 7 7 7 8 7 7 7 & # X   + % 7 8 e e e e q e e e e q e 8 8 8 8 8 8 7 8 8 8 q q 8 8 8 8 8 =   ",
"% % 6 7 7 7 7 7 7 7 7 7 7 7 7 7 6 6 7 7 7 7 7 7 7 7 6 6 7 7 7 6 +         . 7 7 6 7 7 7 7 7 6 7 7 7 7 6 7 7 7 7 7 7 7 7 7 7 7 7 7 7 7 7 - + ",
"Z.m.$ + + + + + + + + O O + O O O + + + + + + + + + + O + + + +             + + + + + + + + + + + + + + + + O O + + + + O + + + + + + + B Z.",
"A.N.+ X X X X X           X           X X X     X         X X X       X X X X X X     X X X X     X X X         X X X         X X X X X b.S."
};
