/* XPM */
static const char *wall[] = {
/* columns rows colors chars-per-pixel */
"64 64 171 2 ",
"   c #000000",
".  c #090705",
"X  c #0D0907",
"o  c #0D0C0A",
"O  c #100E0C",
"+  c #12100E",
"@  c #151413",
"#  c #191715",
"$  c #171817",
"%  c #1C1916",
"&  c #1A1A19",
"*  c #221D1A",
"=  c #25211D",
"-  c #262422",
";  c #292522",
":  c #2D2A27",
">  c #2D2A28",
",  c #332C26",
"<  c #362F28",
"1  c #382F29",
"2  c #36302B",
"3  c #3B342E",
"4  c #3D3630",
"5  c #443C34",
"6  c #483E36",
"7  c #443F3A",
"8  c #483F38",
"9  c #474037",
"0  c #484037",
"q  c #47413A",
"w  c #4B433B",
"e  c #4F483F",
"r  c #4E4742",
"t  c #4F4843",
"y  c #534B44",
"u  c #554E48",
"i  c #584F48",
"p  c #595047",
"a  c #575049",
"s  c #5B534C",
"d  c #5E5750",
"f  c #5F5851",
"g  c #605750",
"h  c #645C54",
"j  c #675F58",
"k  c #676057",
"l  c #686057",
"z  c #676058",
"x  c #6B635B",
"c  c #70675E",
"v  c #70685F",
"b  c #6F6860",
"n  c #6E6E6F",
"m  c #746A62",
"M  c #796E66",
"N  c #7B7167",
"B  c #7C736A",
"V  c #6F6F70",
"C  c #6F7070",
"Z  c #737474",
"A  c #777878",
"S  c #7A7A7B",
"D  c #82776D",
"F  c #84796F",
"G  c #867B71",
"H  c #897E73",
"J  c #8B8075",
"K  c #8E8278",
"L  c #93867B",
"P  c #95887D",
"I  c #988A7F",
"U  c #868687",
"Y  c #8D8D8D",
"T  c #9A8D82",
"R  c #969696",
"E  c #9B9C9C",
"W  c #A09387",
"Q  c #A29489",
"!  c #9E9FA0",
"~  c #A3A4A4",
"^  c #ACADAD",
"/  c #AEB0B0",
"(  c #B4B4B4",
")  c #BBBBBB",
"_  c #BFBFC0",
"`  c #BFC0C0",
"'  c #C2C3C3",
"]  c #C7C7C8",
"[  c #CCCCCC",
"{  c #D6D6D6",
"}  c #D7D7D8",
"|  c #DBDBDB",
" . c #E5E5E5",
".. c #E7E8E7",
"X. c #E8E8E7",
"o. c #E7E7E8",
"O. c #E8E7E8",
"+. c #E7E8E8",
"@. c #EBECEB",
"#. c #EBECEC",
"$. c #ECECEC",
"%. c #EDEDED",
"&. c #EDECEC",
"*. c #EEEEEE",
"=. c #EFEFEF",
"-. c #EFEFEE",
";. c #EAEAEA",
":. c #F0EFEF",
">. c #EFEFF0",
",. c #F0EFF0",
"<. c #EFF0F0",
"1. c #EFF0F0",
"2. c #F1F1F1",
"3. c #F0F0F0",
"4. c #F2F2F2",
"5. c #F3F3F3",
"6. c #F2F3F3",
"7. c #F1F2F2",
"8. c #F3F4F3",
"9. c #F4F3F4",
"0. c #F3F4F4",
"q. c #F4F4F4",
"w. c #F4F5F4",
"e. c #F5F5F5",
"r. c #F4F5F5",
"t. c #F5F5F6",
"y. c #F6F6F6",
"u. c #F7F7F7",
"i. c #F6F7F7",
"p. c #F6F6F6",
"a. c #F4F4F4",
"s. c #F7F8F7",
"d. c #F7F8F7",
"f. c #F7F7F8",
"g. c #F7F7F8",
"h. c #F8F7F8",
"j. c #F8F7F8",
"k. c #F7F8F8",
"l. c #F7F8F8",
"z. c #F8F8F8",
"x. c #F9F8F9",
"c. c #F8F9F9",
"v. c #F9F9F9",
"b. c #F8F8F8",
"n. c #F9FAF9",
"m. c #F9F9FA",
"M. c #F9FAFA",
"N. c #FAFAFA",
"B. c #FAFBFA",
"V. c #FAFAFB",
"C. c #FBFAFB",
"Z. c #FAFBFB",
"A. c #FBFBFB",
"S. c #FBFBFA",
"D. c #FBFCFB",
"F. c #FCFCFB",
"G. c #FBFBFC",
"H. c #FCFBFC",
"J. c #FBFCFC",
"K. c #FCFCFC",
"L. c #FCFDFC",
"P. c #FCFCFD",
"I. c #FCFDFD",
"U. c #FDFDFD",
"Y. c #FDFCFD",
"T. c #FDFDFE",
"R. c #FDFEFE",
"E. c #FEFEFE",
"W. c #FEFFFF",
"Q. c #FFFFFF",
"!. c #FCFDFD",
/* pixels */
"                                                                                                                                ",
"  ~ [ ) ' [ [ ] ) ) ) [ [ [ ] ] ] [ [ [ ) ) ) ] [ [ ] ] ] [ [ [ ] ] ] ] ] ] ] ] ] [ [ ] ) ) ) [ [ [ ] ] ] ] ] ] ] ] ] [ [ { R   ",
"  ] V.$.0.Q.Q.Q.$.$.2.Q.Q.Q.Q.Q.Q.Q.Q.Q.2.$.$.G.Q.Q.Q.Q.Q.Q.Q.Q.Q.Q.Q.Q.Q.Q.Q.Q.Q.Q.Q.V.$.$.2.Q.Q.Q.Q.Q.Q.Q.Q.Q.Q.Q.Q.Q.Q.Q.)   ",
"  ' 2. .#.V.V.e. . .@.V.V.V.e.e.e.V.V.V.@. . .e.V.V.V.e.e.V.V.V.V.e.e.e.e.e.e.e.V.V.V.e. . .@.V.V.V.V.V.V.e.e.e.e.e.e.V.V.Q.)   ",
"  ] Q.Q.e. . .@.Q.Q.V... .@.Q.Q.Q.@. . .V.Q.Q.#. . .e.Q.Q.e. . .2.Q.Q.Q.Q.Q.V.V.e. . .#.Q.Q.V. . .@.V.V.V.V.k.V.V.V.V.@. .2.'   ",
"  ] Q.Q.V. . .@.Q.Q.V. . ...Q.Q.Q.@. . .V.Q.Q.@. . .e.Q.Q.e. . .2.Q.Q.Q.Q.Q.V.V.2. . .@.Q.Q.V. . .@.V.V.V.V.s.k.V.V.V.@. .2.'   ",
"  ] Q.V.e. . .$.Q.Q.V.@.+.@.V.Q.J.@.+.@.V.Q.Q.$.O. .e.Q.Q.e. . .2.Q.Q.Q.Q.Q.V.V.e. . .$.Q.Q.V. . .@.V.V.V.V.V.V.V.V.V.@. .2.)   ",
"  ] 2. .$.Q.Q.V. . .@.Q.Q.V.O. .@.V.Q.Q.@. . .g.Q.Q.$. . .$.Q.Q.V.e.V.V.V.e.e.e.V.Q.Q.e. . .@.Q.Q.V. . .@.Q.Q.Q.@. . .V.G.Q.)   ",
"  ' $. .#.Q.Q.V. . .@.Q.Q.Q. . . .Q.Q.Q.@. . .V.Q.Q.$. . .$.Q.Q.D.e.s.V.V.e.2.2.V.Q.Q.e. . .@.Q.Q.V. . ...Q.Q.Q. . . .V.Q.Q.)   ",
"  ] 2. .$.Q.Q.V. . .@.Q.Q.V... .@.V.Q.J.@. . .s.Q.Q.$. . .1.Q.Q.V.s.V.V.V.s.e.e.V.Q.Q.e. . .@.Q.Q.h. . .@.Q.Q.Q.@. . .V.Q.Q.)   ",
"  [ Q.J.e. . .@.Q.Q.V.@. .@.V.Q.G.@. . .V.Q.Q.$. . .e.Q.Q.e. . .2.Q.V.V.V.V.Q.Q.e. . .$.Q.Q.V. . .@.V.V.V.V.V.V.V.V.V.V.g.Q.]   ",
"  [ Q.Q.g. . .@.Q.Q.V. . . .Q.Q.Q.@. . .V.Q.Q.@. . .e.Q.Q.e. . .,.Q.V.V.V.H.Q.Q.e. . .@.Q.Q.V. . .@.V.V.V.V.V.V.V.V.V.V.V.Q.]   ",
"  [ Q.J.e. . .$.Q.Q.V... .@.V.V.V. . . .e.V.V.@. . .e.Q.Q.2. . .$.Q.V.e.e.j.V.V.2. . .@.V.V.e. . . .V.V.V.k.g.V.V.V.V.V.e.Q.]   ",
"  ' 2. .$.Q.Q.V. . .@.J.Q.V.e.e.e.Q.Q.Q.e.e.e.Q.Q.Q.Q.Q.Q.Q.Q.Q.Q.Q.Q.Q.Q.V.e.e.V.Q.Q.Q.e.e.V.Q.Q.Q.V.Q.D.@. .@.J.Q.Q.@. .2.'   ",
"  ' >. .$.Q.Q.V. . ...Q.Q.V.~ E E ^ ^ ^ ! E E ^ ^ ^ ^ ~ ~ ^ ( ( ( ^ ^ ^ ^ ~ E E ~ / ^ ^ E E E ( ^ ) Q.Q.V. . . .Q.Q.Q... .2.`   ",
"  ' 2. .$.Q.Q.k. . .@.Q.V.) - @ % % # # % % % % % % % % @ .       o # # % % % % % # # % % % # O . - ' G.V... .@.G.Q.Q.@. .2.)   ",
"  ' Q.J.e. . .#.Q.Q.V.$.{ & K Q P P P P P P P P P P L P B y * . X x W L L P L P L P P L L I J x m s @ | $.V.Q.V.@. .@.V.V.Q.)   ",
"  ' Q.Q.e. . .@.Q.Q.V.@.{ % D P x g h h h h h h h h h g h e 6 O y T N g h h g f g h h h g g h h x r & } @.Q.Q.Q... . .V.Q.Q.)   ",
"  ' Q.J.e. . .$.Q.Q.k.@.{ & D v g h h h h h h h h h h h h y 6 o u G g h h g x M x h h h m m h z h < & | $.V.Q.V.@.@.@.V.V.Q.)   ",
"  ' 2. .$.Q.Q.V. . .@.Q.@.& F x g h h h h h h h h h h h h r 6 o y G d h h g x F m h h h B F h h g < & 2.Q. . .@.V.Q.Q.@. .2.'   ",
"  ' $. .@.Q.Q.V. . . .Q.$.& F v g h h h h h h h g h g h y 5 0 o y G s h h h h g h h h h h h j s 0 < & e.Q. . . .Q.Q.Q.@. .2.'   ",
"  ' 2. .$.Q.Q.k. . .@.Q.@.& F v g h s 6 y h h h g g h y 5 5 0 o u F x K m g h h h h h h h h 0 6 6 < & 2.Q.@.@.@.Q.Q.Q.$. .e.'   ",
"  ' Q.Q.e. . .@.Q.Q.V.@.{ & F v g h g s s h h h h y 0 6 5 5 6 o u G g m x h h h h h h h h h d u 6 < & 2.Q.e.e.e.Q.Q.Q.V.e.Q.'   ",
"  ' Q.Q.e. . .@.Q.Q.V.@.{ & F v g h h h h h g e e 6 5 5 5 0 e o y G d g h h h h h h h h h y y e w < & 0.Q.e.e.e.Q.Q.Q.s.e.Q.'   ",
"  ' Q.Q.e. . .$.Q.Q.V.@.{ & m x g h h h h h h 6 5 5 5 5 5 0 e o u H f h h h h h h s s s s 6 3 6 s < & 2.Q.e.k.k.Q.Q.J.V.e.Q.'   ",
"  ] Q.e.e.e.e.e.V.g.e.V. .& y g g h h h h h s 6 5 5 6 0 6 5 0 + 7 m s h h h h h h y 3 5 5 5 5 0 y 1 # } $.V.V.V.@. . .V.G.Q.)   ",
"  ] Q.e.V.V.V.V.j.e.e.J.@.# , 5 s g g g g s 6 5 6 6 0 y 0 5 5 @ % 5 y g g g g d g y 5 6 6 6 0 y 6 , @ } @.k.V.V. . . .V.Q.Q.)   ",
"  ] Q.e.e.V.V.V.e.e.e.Q.@.@   < 3 3 3 3 4 4 4 3 3 3 3 3 3 4 @     * 4 3 3 3 3 4 4 3 3 3 3 3 3 3 ,   @ | $.e.k.e.@. .@.V.V.Q.)   ",
"  ) 2. .$.Q.Q.V. . .@.Q.$.@   o o o o o .       o o o o o o X . X o o o o o o .     . o o o o o o   $ 2.Q. . .@.V.Q.Q.@. .2.'   ",
"  ) 2. .$.Q.Q.V. . .O.Q.$.% M H F F G M ,     X M H F G G F F G G G G G F H h %     ; H G G F F J v & 2.Q. . . .Q.Q.Q.@. .2.'   ",
"  ) 2. .$.Q.Q.k. .o.@.Q.@.& G N x x m h 5 2 o M P m x x x x x x x x x x x x i 6 * - P J x x v x m s & 2.Q.+.o.@.V.Q.Q.@. .0.'   ",
"  ' Q.G.e. . .@.Q.Q.V.@.} & g z M N h s 6 4 o H M g h g g g h s y g g g g h h s * > T x h f y h g 3 & } @.V.Q.V.@. . .V.V.Q.)   ",
"  ' Q.Q.e. . .@.Q.Q.V. .{ # s z N B z s 6 4 o G x h h h k x h s y h h h h s y y * > L f h g y h h < $ } @.Q.Q.Q. . . .V.Q.Q.)   ",
"  ' Q.V.e. . .@.Q.Q.e.@.{ @ s x h g x s 6 4 o G x h h g M B g h h h h h h u 3 0 * > L h h h h h g < & | $.V.Q.V.@. .@.V.V.Q.)   ",
"  ] 2. .$.Q.Q.V. . .@.Q.#.& s x h j g 0 6 3 o G x h h h h h h h h h s 0 w 7 5 0 * > P g h h g 0 e < & 2.Q... .@.V.Q.Q.@. .2.'   ",
"  ] 2. .$.Q.Q.V. . .@.Q.$.& s x z h 0 5 7 3 X b x h h h h h h h h x s 5 0 s e 0 * ; F h h x d 5 6 < & e.Q. . . .Q.Q.Q.@. .2.'   ",
"  ' 2. .$.Q.Q.V. ...@.Q.#.& 5 y e w 5 5 6 5 X e y h j h h h h z a e w 5 6 e 6 0 ; # y w e e w 5 6 2 & 2.Q.o.+.@.V.Q.Q.@. .0.)   ",
"  ' Q.V.e. . .@.Q.Q.V.@.} @ 3 e 0 0 0 e 6 # . # 6 y y y y y y y e 6 0 0 0 6 e 3 o . = 0 0 0 0 w 5 o $ | $.V.Q.V.@. . .V.V.Q.)   ",
"  ' Q.Q.e. . .@.Q.Q.V.@.{ @ @ @ O O o O o       o o o o o O # @ % @ o O O O O .       O o O O O @   @ } @.Q.Q.Q. . . .V.Q.Q.)   ",
"  ' Q.V.e. . .#.Q.Q.V.@.} @   7 y t t r y u u u t y y t y 4 .     > u r y y y y a a u y y y u q %   @ | @.V.Q.V.@. .O.V.V.Q.)   ",
"  ] 2. .$.Q.Q.V. . .@.Q.#.& r T K G G G H G G G G G G G H g , X ; G T G G G G G G G G G G G H N 5 # & 2.Q.@. .@.V.Q.Q.@. .2._   ",
"  ] 2. .$.Q.Q.V. . ...Q.$.& N G h f g s y s g f f f d f h e 0 O s T x f g f f f f f f f f f h s 6 3 & e.Q. . . .Q.Q.Q.@. .2.`   ",
"  ] 2. .$.Q.Q.V. . .@.Q.#.& y h h h h g 0 s z h h h h h j y 6 o u G d h h h h h h h h h h h z s 6 < & 2.Q.@.+.@.V.Q.Q.@. .e.'   ",
"  [ Q.V.e. . .@.Q.Q.V.@.} % s x s y h h h h h h h h h h y 5 0 o y G g h e h h h h h h h h j g 6 6 2 & | #.V.Q.V.@. ...V.V.Q.]   ",
"  [ Q.Q.e. . .@.Q.Q.V.@.{ @ s x g g h h h h h h h a 0 e 6 5 0 o y G f h d h h h h h h h y 0 0 5 9 < @ } @.Q.Q.Q. . . .V.Q.Q.]   ",
"  ] Q.V.e. . .@.Q.Q.V.@.{ % s x h h h h h h h h x y 5 5 5 5 8 o a J f h h h h h h x s e 0 5 5 6 9 < & | $.V.Q.V.@. .@.V.V.Q.]   ",
"  ' 2. .$.Q.Q.V. . .@.Q.$.& 5 j z z g e e e e e e 0 5 5 5 5 0 @ 2 s u x h h h x s e 0 5 5 6 e 5 6 < & 2.Q.+. .@.V.Q.Q.@. .2.'   ",
"  ' 2. .$.Q.Q.V. . .o.Q.$.@ 5 s s s p w 0 0 0 0 0 0 e e w e < o o 2 y s s s s s y 0 w e w e y e e 3 @ 2.Q. . . .Q.Q.Q.@. .2.'   ",
"  ' 2. .$.Q.Q.V. . .@.Q.e.U @ . X X X O X X o O O O X X X o .     . X . X X X X X X X X o o O O . # Y V.V.@. .@.V.Q.Q.@. .0.'   ",
"  ] Q.G.e. . .$.Q.Q.V. .@.2.U A S V n n A A A Z n n A A A A Z Z A S A S S A n V A A A A C n Z S A Y e.@.@.V.Q.V.@. .O.V.V.Q.)   ",
"  [ Q.Q.s. . .@.Q.Q.V. . . .Q.Q.Q.h.e.e.Q.Q.Q.V.e.e.Q.Q.Q.Q.e.e.V.Q.Q.Q.Q.V.e.e.V.Q.Q.Q.e.e.V.Q.Q.V. . .@.Q.Q.Q... . .V.Q.Q.)   ",
"  ] Q.V.e. . .$.J.Q.V.@.+.@.e.V.e. . . .e.V.V... . .2.V.V.2. . .@.e.e.V.V.$. . .@.V.V.2. . .+.V.V.e... .@.V.Q.V.@. .@.V.V.Q.)   ",
"  ' 2. .$.Q.Q.V. . .@.Q.Q.V.@. .@.V.Q.Q.@. . .g.Q.Q.$. . .$.Q.Q.Q.Q.2. . .2.Q.Q.e. . .$.Q.Q.V. . .@.Q.Q.V.@. .O.V.Q.Q.@. .2.'   ",
"  ' 1. .$.Q.Q.V. . .@.Q.Q.H. . . .Q.Q.Q.@. . .V.Q.Q.$. . .$.Q.Q.Q.Q.2. . .2.Q.Q.e. . .$.Q.Q.V. . .@.Q.Q.Q. . . .Q.Q.Q.@. .2.'   ",
"  ' 2. .$.Q.Q.V.o.@.@.Q.Q.V.@.@.@.V.Q.Q.#.+.@.s.Q.Q.$.@...2.Q.Q.Q.Q.2. .@.2.Q.Q.e. ...$.Q.Q.s.@.+.@.Q.Q.V.@.o.@.V.Q.Q.@. .0.'   ",
"  [ Q.J.e. . .#.Q.Q.V.@. .@.D.Q.J.@. .+.V.Q.Q.$.+. .2.V.e.V.Q.Q.Q.s.V.Q.Q.8. . .$.Q.Q.e. . .#.Q.Q.V. . .@.J.Q.V.@. . .V.V.Q.)   ",
"  [ Q.Q.V. . .@.Q.Q.V. . .@.Q.Q.Q.@. . .V.Q.Q.@. . .2.V.e.V.Q.Q.J.e.G.Q.Q.2. . .$.Q.Q.V. . .@.Q.Q.V. . .@.Q.Q.Q. . . .V.Q.Q.)   ",
"  ] Q.V.e. . .@.Q.Q.V.@.@.@.G.Q.V.@.o.@.V.Q.Q.$.@.X.2.V.e.V.Q.Q.H.V.V.Q.Q.2. . .$.Q.Q.e. .O.#.Q.Q.k.O. .@.J.Q.V.@. .@.V.V.Q.)   ",
"  ] 2. .$.Q.Q.V. . .@.Q.Q.G.@...@.V.Q.Q.@. . .V.Q.Q.V.V.V.J.Q.Q.Q.Q.2. . .2.Q.Q.e. . .$.Q.Q.V... .@.Q.Q.V.@. .@.V.Q.Q.@. .2.'   ",
"  ' 1. .$.Q.Q.V. . .@.Q.Q.Q. . . .Q.Q.Q.@. . .V.Q.Q.V.V.V.D.Q.Q.Q.Q.2. . .2.Q.Q.e. . .$.Q.Q.V. . .@.Q.Q.Q. . . .Q.Q.Q.@.@.2.'   ",
"  ' 2. .#.V.V.e. . .@.V.V.V. . . .k.V.V.@. . .e.V.V.V.V.e.V.Q.Q.D.Q.2. . .$.V.V.2. . .#.V.V.e. . .@.V.V.g. . ...V.V.V.$.1.V.)   ",
"  [ Q.Q.V.2.2.e.Q.Q.Q.2.2.2.Q.Q.Q.2.2.2.Q.Q.Q.e.2.2.V.Q.Q.Q.Q.Q.Q.Q.Q.Q.Q.V.2.2.e.Q.Q.Q.2.2.e.Q.Q.Q.2.2.2.Q.Q.Q.2.2.2.Q.Q.Q.`   ",
"  ~ { [ ] ) ) ) [ [ ] ) ) ) [ [ [ ) ) ) ] [ [ ) ) ) ] ] ] ] [ [ ] ] ] [ [ ] ) ) ' [ [ ] ) ) ) [ [ ] ) ) ) [ [ [ ) ) ) ] [ { R   ",
"                                                                                                                                "
};
